<svg width="342" height="234" viewBox="0 0 342 234" fill="none" xmlns="http://www.w3.org/2000/svg">
<rect width="342" height="234" rx="12" fill="#00874A"/>
<path d="M56.4 87.928L54.96 94.504H61.152V100.648H53.664L51.888 109H45.6L47.376 100.648H38.544L36.768 109H30.48L32.256 100.648H25.056V94.504H33.552L34.992 87.928H27.984V81.784H36.288L38.064 73.48H44.352L42.576 81.784H51.408L53.184 73.48H59.472L57.696 81.784H64.08V87.928H56.4ZM50.112 87.928H41.28L39.84 94.504H48.672L50.112 87.928ZM80.3723 109C71.7323 109 67.4123 103.256 67.4123 91.768C67.4123 80.312 71.7323 74.584 80.3723 74.584C84.9483 74.584 88.2443 76.12 90.2603 79.192C92.2763 82.264 93.2843 86.456 93.2843 91.768C93.2843 97.112 92.2763 101.32 90.2603 104.392C88.2443 107.464 84.9483 109 80.3723 109ZM85.3163 99.832C86.1803 97.944 86.6123 95.256 86.6123 91.768C86.6123 88.312 86.1803 85.656 85.3163 83.8C84.4843 81.912 82.8363 80.968 80.3723 80.968C77.8763 80.968 76.1963 81.912 75.3323 83.8C74.5003 85.656 74.0843 88.312 74.0843 91.768C74.0843 95.256 74.5003 97.944 75.3323 99.832C76.1963 101.688 77.8763 102.616 80.3723 102.616C82.8363 102.616 84.4843 101.688 85.3163 99.832ZM110.7 109C102.06 109 97.7404 103.256 97.7404 91.768C97.7404 80.312 102.06 74.584 110.7 74.584C115.276 74.584 118.572 76.12 120.588 79.192C122.604 82.264 123.612 86.456 123.612 91.768C123.612 97.112 122.604 101.32 120.588 104.392C118.572 107.464 115.276 109 110.7 109ZM115.644 99.832C116.508 97.944 116.94 95.256 116.94 91.768C116.94 88.312 116.508 85.656 115.644 83.8C114.812 81.912 113.164 80.968 110.7 80.968C108.204 80.968 106.524 81.912 105.66 83.8C104.828 85.656 104.412 88.312 104.412 91.768C104.412 95.256 104.828 97.944 105.66 99.832C106.524 101.688 108.204 102.616 110.7 102.616C113.164 102.616 114.812 101.688 115.644 99.832ZM129.077 82.84C129.077 81.208 129.525 79.688 130.421 78.28C131.349 76.872 132.709 75.736 134.501 74.872C136.325 74.008 138.517 73.576 141.077 73.576C143.637 73.576 145.813 74.008 147.605 74.872C149.429 75.736 150.789 76.872 151.685 78.28C152.613 79.688 153.077 81.208 153.077 82.84C153.077 84.696 152.629 86.28 151.733 87.592C150.837 88.872 149.493 89.832 147.701 90.472C149.717 91.24 151.253 92.36 152.309 93.832C153.397 95.272 153.941 97.032 153.941 99.112C153.941 101.352 153.381 103.288 152.26 104.92C151.141 106.52 149.605 107.736 147.653 108.568C145.733 109.4 143.541 109.816 141.077 109.816C138.613 109.816 136.405 109.4 134.453 108.568C132.533 107.736 131.013 106.52 129.893 104.92C128.805 103.288 128.261 101.352 128.261 99.112C128.261 97.032 128.789 95.272 129.845 93.832C130.933 92.36 132.485 91.24 134.501 90.472C132.709 89.832 131.349 88.856 130.421 87.544C129.525 86.232 129.077 84.664 129.077 82.84ZM135.749 83.944C135.749 85.48 136.229 86.664 137.189 87.496C138.149 88.328 139.445 88.744 141.077 88.744C142.741 88.744 144.053 88.328 145.013 87.496C145.973 86.664 146.453 85.48 146.453 83.944C146.453 82.408 145.957 81.224 144.965 80.392C144.005 79.528 142.709 79.096 141.077 79.096C139.477 79.096 138.181 79.528 137.189 80.392C136.229 81.224 135.749 82.408 135.749 83.944ZM134.837 98.728C134.837 100.424 135.397 101.768 136.517 102.76C137.637 103.752 139.157 104.248 141.077 104.248C142.997 104.248 144.517 103.752 145.637 102.76C146.789 101.768 147.365 100.424 147.365 98.728C147.365 97 146.773 95.688 145.589 94.792C144.437 93.864 142.933 93.4 141.077 93.4C139.253 93.4 137.749 93.864 136.565 94.792C135.413 95.688 134.837 97 134.837 98.728ZM179.703 79.864L167.319 109H160.311L172.839 80.632H157.143V74.824H179.703V79.864ZM182.622 102.184V96.568L198.846 74.728H206.094V96.328H210.51V102.184H206.094V109H199.278V102.184H182.622ZM199.806 82.648L189.534 96.328H199.806V82.648ZM235.775 102.184H222.191L219.791 109H212.639L225.119 75.496H232.847L245.279 109H238.127L235.775 102.184ZM233.951 97.048L228.959 82.744L223.967 97.048H233.951Z" fill="white"/>
<path d="M35.98 155.9V170H34.58V163.32H26.94V170H25.52V155.9H26.94V162.16H34.58V155.9H35.98ZM40.4556 157.04V162.36H45.9556V163.46H40.4556V168.84H46.5556V170H39.0356V155.9H46.5556V157.04H40.4556ZM56.6966 170L53.0166 164.06L49.5966 170H47.9766L52.2366 162.82L47.9366 155.9H49.5966L53.2166 161.72L56.6366 155.9H58.2566L53.9766 162.96L58.3566 170H56.6966ZM71.72 155.76C73.4133 155.76 74.8133 156.173 75.92 157C77.0267 157.813 77.8067 158.94 78.26 160.38H76.78C76.4067 159.367 75.7867 158.56 74.92 157.96C74.0533 157.36 72.98 157.06 71.7 157.06C70.7267 157.06 69.84 157.3 69.04 157.78C68.2533 158.26 67.6333 158.947 67.18 159.84C66.7267 160.733 66.5 161.773 66.5 162.96C66.5 164.147 66.7267 165.187 67.18 166.08C67.6333 166.96 68.2533 167.64 69.04 168.12C69.84 168.6 70.7267 168.84 71.7 168.84C72.98 168.84 74.0533 168.54 74.92 167.94C75.7867 167.34 76.4067 166.533 76.78 165.52H78.26C77.8067 166.96 77.0267 168.093 75.92 168.92C74.8133 169.733 73.4133 170.14 71.72 170.14C70.4267 170.14 69.2733 169.833 68.26 169.22C67.2467 168.607 66.46 167.76 65.9 166.68C65.34 165.587 65.06 164.347 65.06 162.96C65.06 161.56 65.34 160.313 65.9 159.22C66.46 158.127 67.2467 157.28 68.26 156.68C69.2733 156.067 70.4267 155.76 71.72 155.76ZM87.213 155.74C88.5196 155.74 89.693 156.047 90.733 156.66C91.773 157.273 92.5863 158.127 93.173 159.22C93.773 160.313 94.073 161.553 94.073 162.94C94.073 164.327 93.773 165.573 93.173 166.68C92.5863 167.773 91.773 168.627 90.733 169.24C89.693 169.853 88.5196 170.16 87.213 170.16C85.9063 170.16 84.733 169.853 83.693 169.24C82.653 168.627 81.833 167.773 81.233 166.68C80.6463 165.573 80.353 164.327 80.353 162.94C80.353 161.553 80.6463 160.313 81.233 159.22C81.833 158.127 82.653 157.273 83.693 156.66C84.733 156.047 85.9063 155.74 87.213 155.74ZM87.213 157.04C86.1863 157.04 85.2596 157.28 84.433 157.76C83.6196 158.24 82.973 158.927 82.493 159.82C82.0263 160.713 81.793 161.753 81.793 162.94C81.793 164.127 82.0263 165.167 82.493 166.06C82.973 166.953 83.6196 167.64 84.433 168.12C85.2596 168.6 86.1863 168.84 87.213 168.84C88.2396 168.84 89.1596 168.6 89.973 168.12C90.7996 167.64 91.4463 166.953 91.913 166.06C92.393 165.167 92.633 164.127 92.633 162.94C92.633 161.753 92.393 160.713 91.913 159.82C91.4463 158.927 90.7996 158.24 89.973 157.76C89.1596 157.28 88.2396 157.04 87.213 157.04ZM108.313 162.94C108.313 164.393 108.027 165.653 107.453 166.72C106.88 167.773 106.033 168.587 104.913 169.16C103.807 169.72 102.467 170 100.893 170H96.6333V155.9H100.893C103.267 155.9 105.093 156.527 106.373 157.78C107.667 159.02 108.313 160.74 108.313 162.94ZM100.793 168.74C102.78 168.74 104.293 168.233 105.333 167.22C106.373 166.193 106.893 164.767 106.893 162.94C106.893 161.113 106.373 159.693 105.333 158.68C104.293 157.653 102.78 157.14 100.793 157.14H98.0533V168.74H100.793ZM112.292 157.04V162.36H117.792V163.46H112.292V168.84H118.392V170H110.872V155.9H118.392V157.04H112.292Z" fill="white"/>
</svg>
