<svg width="342" height="305" viewBox="0 0 342 305" fill="none" xmlns="http://www.w3.org/2000/svg">
<rect width="342" height="305" rx="12" fill="#DDF2E9"/>
<path d="M44.736 94L36.816 80.8H33.84V94H27.072V60.112H39.984C43.92 60.112 46.912 61.072 48.96 62.992C51.04 64.912 52.08 67.44 52.08 70.576C52.08 73.136 51.36 75.28 49.92 77.008C48.512 78.736 46.464 79.888 43.776 80.464L52.224 94H44.736ZM33.84 76.144H39.408C43.28 76.144 45.216 74.432 45.216 71.008C45.216 69.376 44.736 68.112 43.776 67.216C42.848 66.288 41.392 65.824 39.408 65.824H33.84V76.144ZM84.3353 74.08V79.696H63.9352V74.08H84.3353ZM114.825 94C106.185 94 101.865 88.256 101.865 76.768C101.865 65.312 106.185 59.584 114.825 59.584C119.401 59.584 122.697 61.12 124.713 64.192C126.729 67.264 127.737 71.456 127.737 76.768C127.737 82.112 126.729 86.32 124.713 89.392C122.697 92.464 119.401 94 114.825 94ZM119.769 84.832C120.633 82.944 121.065 80.256 121.065 76.768C121.065 73.312 120.633 70.656 119.769 68.8C118.937 66.912 117.289 65.968 114.825 65.968C112.329 65.968 110.649 66.912 109.785 68.8C108.953 70.656 108.537 73.312 108.537 76.768C108.537 80.256 108.953 82.944 109.785 84.832C110.649 86.688 112.329 87.616 114.825 87.616C117.289 87.616 118.937 86.688 119.769 84.832ZM42.768 110.776C46.896 110.776 50.32 111.8 53.04 113.848C55.76 115.864 57.504 118.6 58.272 122.056H51.168C50.496 120.52 49.424 119.304 47.952 118.408C46.512 117.48 44.8 117.016 42.816 117.016C40.864 117.016 39.136 117.464 37.632 118.36C36.128 119.256 34.96 120.536 34.128 122.2C33.296 123.864 32.88 125.816 32.88 128.056C32.88 131.608 33.824 134.376 35.712 136.36C37.632 138.344 40.24 139.336 43.536 139.336C45.968 139.336 48.048 138.616 49.776 137.176C51.536 135.736 52.672 133.736 53.184 131.176H41.712V126.328H58.848V132.856C58.368 135.096 57.424 137.16 56.016 139.048C54.64 140.936 52.816 142.456 50.544 143.608C48.304 144.728 45.728 145.288 42.816 145.288C39.488 145.288 36.544 144.568 33.984 143.128C31.456 141.656 29.488 139.624 28.08 137.032C26.704 134.408 26.016 131.416 26.016 128.056C26.016 124.696 26.704 121.72 28.08 119.128C29.488 116.504 31.456 114.456 33.984 112.984C36.512 111.512 39.44 110.776 42.768 110.776ZM91.6009 125.08V130.696H71.2009V125.08H91.6009ZM107.451 117.448V111.112H119.643V145H112.539V117.448H107.451ZM137.167 109.816C139.471 109.816 141.439 110.216 143.071 111.016C144.735 111.816 145.983 112.92 146.815 114.328C147.679 115.736 148.111 117.304 148.111 119.032C148.111 121.208 147.519 123 146.335 124.408C145.151 125.784 143.583 126.632 141.631 126.952V127.192C146.367 128.6 148.735 131.384 148.735 135.544C148.735 138.456 147.759 140.824 145.807 142.648C143.855 144.44 141.103 145.336 137.551 145.336C133.775 145.336 130.767 144.408 128.527 142.552C126.287 140.664 125.039 137.832 124.783 134.056H131.407C131.567 135.784 132.127 137.16 133.087 138.184C134.079 139.176 135.471 139.672 137.263 139.672C138.799 139.672 139.999 139.256 140.863 138.424C141.727 137.56 142.159 136.44 142.159 135.064C142.159 133.432 141.535 132.184 140.287 131.32C139.039 130.456 137.199 130.024 134.767 130.024H133.375V124.504H134.767C139.247 124.568 141.487 123.016 141.487 119.848C141.487 118.472 141.087 117.4 140.287 116.632C139.487 115.832 138.399 115.432 137.023 115.432C135.583 115.432 134.399 115.896 133.471 116.824C132.543 117.72 132.015 118.984 131.887 120.616H125.263C125.455 117.16 126.575 114.504 128.623 112.648C130.671 110.76 133.519 109.816 137.167 109.816ZM177.949 116.392H161.869V124.936C162.605 124.072 163.613 123.384 164.893 122.872C166.205 122.328 167.645 122.056 169.213 122.056C171.549 122.056 173.485 122.568 175.021 123.592C176.589 124.584 177.741 125.928 178.477 127.624C179.245 129.288 179.629 131.144 179.629 133.192C179.629 136.808 178.605 139.704 176.557 141.88C174.541 144.056 171.645 145.144 167.869 145.144C165.405 145.144 163.261 144.712 161.437 143.848C159.613 142.952 158.189 141.72 157.165 140.152C156.141 138.552 155.581 136.696 155.485 134.584H162.061C162.317 136.024 162.909 137.176 163.837 138.04C164.765 138.872 165.997 139.288 167.533 139.288C169.389 139.288 170.765 138.728 171.661 137.608C172.589 136.456 173.053 134.936 173.053 133.048C173.053 131.256 172.573 129.864 171.613 128.872C170.653 127.88 169.293 127.384 167.533 127.384C166.253 127.384 165.165 127.672 164.269 128.248C163.373 128.792 162.717 129.528 162.301 130.456H155.725V110.44H177.949V116.392ZM45.984 178.528C48.032 178.944 49.664 179.92 50.88 181.456C52.128 182.96 52.752 184.736 52.752 186.784C52.752 189.632 51.792 191.888 49.872 193.552C47.984 195.184 45.232 196 41.616 196H27.072V162.112H41.328C44.752 162.112 47.376 162.864 49.2 164.368C51.056 165.872 51.984 167.984 51.984 170.704C51.984 172.816 51.424 174.544 50.304 175.888C49.216 177.232 47.776 178.112 45.984 178.528ZM33.84 176.32H39.936C41.632 176.32 42.912 175.952 43.776 175.216C44.672 174.448 45.12 173.36 45.12 171.952C45.12 170.544 44.688 169.456 43.824 168.688C42.96 167.92 41.632 167.536 39.84 167.536H33.84V176.32ZM40.272 190.48C42.064 190.48 43.44 190.096 44.4 189.328C45.36 188.528 45.84 187.376 45.84 185.872C45.84 184.368 45.344 183.216 44.352 182.416C43.392 181.584 42.016 181.168 40.224 181.168H33.84V190.48H40.272ZM85.179 176.08V181.696H64.779V176.08H85.179ZM123.781 166.864L111.397 196H104.389L116.917 167.632H101.221V161.824H123.781V166.864ZM126.7 189.184V183.568L142.924 161.728H150.172V183.328H154.588V189.184H150.172V196H143.356V189.184H126.7ZM143.884 169.648L133.612 183.328H143.884V169.648Z" fill="#00874A"/>
<path d="M33.08 244L29.22 238.12H26.94V244H25.52V229.9H29.84C31.4267 229.9 32.6067 230.273 33.38 231.02C34.1667 231.767 34.56 232.773 34.56 234.04C34.56 235.213 34.2267 236.147 33.56 236.84C32.9067 237.533 31.9533 237.947 30.7 238.08L34.68 244H33.08ZM26.94 237.06H29.74C32.0067 237.06 33.14 236.08 33.14 234.12C33.14 232.12 32.0067 231.12 29.74 231.12H26.94V237.06ZM43.2667 229.78C44.8667 229.78 46.2201 230.18 47.3267 230.98C48.4334 231.78 49.1934 232.867 49.6067 234.24H48.1467C47.7867 233.293 47.1734 232.527 46.3067 231.94C45.4534 231.353 44.4401 231.06 43.2667 231.06C42.2534 231.06 41.3334 231.3 40.5067 231.78C39.6934 232.26 39.0534 232.947 38.5867 233.84C38.1201 234.733 37.8867 235.773 37.8867 236.96C37.8867 238.173 38.1201 239.227 38.5867 240.12C39.0667 241.013 39.7201 241.7 40.5467 242.18C41.3867 242.66 42.3401 242.9 43.4067 242.9C44.3534 242.9 45.2201 242.693 46.0067 242.28C46.7934 241.853 47.4267 241.24 47.9067 240.44C48.4001 239.64 48.6867 238.7 48.7667 237.62H42.9067V236.56H49.9867V237.8C49.8934 239 49.5534 240.08 48.9667 241.04C48.3934 242 47.6134 242.76 46.6267 243.32C45.6534 243.867 44.5401 244.14 43.2867 244.14C41.9534 244.14 40.7667 243.84 39.7267 243.24C38.6867 242.627 37.8801 241.773 37.3067 240.68C36.7334 239.587 36.4467 238.347 36.4467 236.96C36.4467 235.573 36.7334 234.333 37.3067 233.24C37.8801 232.147 38.6801 231.3 39.7067 230.7C40.7467 230.087 41.9334 229.78 43.2667 229.78ZM59.0113 236.7C59.8913 236.873 60.6046 237.28 61.1513 237.92C61.6979 238.56 61.9713 239.32 61.9713 240.2C61.9713 241.333 61.5846 242.253 60.8113 242.96C60.0379 243.653 58.9179 244 57.4513 244H52.5513V229.9H57.3913C58.8046 229.9 59.8646 230.22 60.5713 230.86C61.2913 231.487 61.6513 232.333 61.6513 233.4C61.6513 234.32 61.4046 235.06 60.9113 235.62C60.4179 236.167 59.7846 236.527 59.0113 236.7ZM53.9712 236.2H57.2113C58.1979 236.2 58.9446 235.973 59.4513 235.52C59.9713 235.053 60.2313 234.42 60.2313 233.62C60.2313 232.833 59.9779 232.213 59.4713 231.76C58.9646 231.307 58.1846 231.08 57.1313 231.08H53.9712V236.2ZM57.2113 242.8C58.2646 242.8 59.0846 242.56 59.6713 242.08C60.2579 241.587 60.5513 240.907 60.5513 240.04C60.5513 239.187 60.2513 238.513 59.6513 238.02C59.0513 237.513 58.2246 237.26 57.1713 237.26H53.9712V242.8H57.2113Z" fill="#00874A"/>
</svg>
