<svg width="342" height="310" viewBox="0 0 342 310" fill="none" xmlns="http://www.w3.org/2000/svg">
<rect width="342" height="310" rx="12" fill="#DDF2E9"/>
<mask id="path-2-outside-1_2887_756" maskUnits="userSpaceOnUse" x="25" y="48" width="44" height="19" fill="black">
<rect fill="white" x="25" y="48" width="44" height="19"/>
<path d="M35.8 49.104V49.536H30.88V66H30.4V49.536H25.48V49.104H35.8ZM43.8814 52.752C45.4014 52.752 46.6494 53.224 47.6254 54.168C48.6014 55.112 49.0894 56.536 49.0894 58.44V66H48.6334V58.392C48.6334 56.696 48.2094 55.408 47.3614 54.528C46.5134 53.632 45.3534 53.184 43.8814 53.184C42.3454 53.184 41.1134 53.688 40.1854 54.696C39.2574 55.688 38.7934 57.16 38.7934 59.112V66H38.3134V48.24H38.7934V56.688C39.0974 55.376 39.7134 54.392 40.6414 53.736C41.5854 53.08 42.6654 52.752 43.8814 52.752ZM52.6716 49.08C52.6716 48.888 52.7276 48.736 52.8396 48.624C52.9676 48.496 53.1196 48.432 53.2956 48.432C53.4716 48.432 53.6156 48.496 53.7276 48.624C53.8556 48.736 53.9196 48.888 53.9196 49.08C53.9196 49.272 53.8556 49.432 53.7276 49.56C53.6156 49.672 53.4716 49.728 53.2956 49.728C53.1196 49.728 52.9676 49.672 52.8396 49.56C52.7276 49.432 52.6716 49.272 52.6716 49.08ZM53.5356 53.04V66H53.0556V53.04H53.5356ZM63.1939 52.752C64.7139 52.752 65.9619 53.224 66.9379 54.168C67.9139 55.112 68.4019 56.536 68.4019 58.44V66H67.9459V58.392C67.9459 56.696 67.5219 55.408 66.6739 54.528C65.8259 53.632 64.6659 53.184 63.1939 53.184C61.6579 53.184 60.4259 53.688 59.4979 54.696C58.5699 55.688 58.1059 57.16 58.1059 59.112V66H57.6259V53.04H58.1059V56.688C58.4099 55.376 59.0259 54.392 59.9539 53.736C60.8979 53.08 61.9779 52.752 63.1939 52.752Z"/>
</mask>
<path d="M35.8 49.104V49.536H30.88V66H30.4V49.536H25.48V49.104H35.8ZM43.8814 52.752C45.4014 52.752 46.6494 53.224 47.6254 54.168C48.6014 55.112 49.0894 56.536 49.0894 58.44V66H48.6334V58.392C48.6334 56.696 48.2094 55.408 47.3614 54.528C46.5134 53.632 45.3534 53.184 43.8814 53.184C42.3454 53.184 41.1134 53.688 40.1854 54.696C39.2574 55.688 38.7934 57.16 38.7934 59.112V66H38.3134V48.24H38.7934V56.688C39.0974 55.376 39.7134 54.392 40.6414 53.736C41.5854 53.08 42.6654 52.752 43.8814 52.752ZM52.6716 49.08C52.6716 48.888 52.7276 48.736 52.8396 48.624C52.9676 48.496 53.1196 48.432 53.2956 48.432C53.4716 48.432 53.6156 48.496 53.7276 48.624C53.8556 48.736 53.9196 48.888 53.9196 49.08C53.9196 49.272 53.8556 49.432 53.7276 49.56C53.6156 49.672 53.4716 49.728 53.2956 49.728C53.1196 49.728 52.9676 49.672 52.8396 49.56C52.7276 49.432 52.6716 49.272 52.6716 49.08ZM53.5356 53.04V66H53.0556V53.04H53.5356ZM63.1939 52.752C64.7139 52.752 65.9619 53.224 66.9379 54.168C67.9139 55.112 68.4019 56.536 68.4019 58.44V66H67.9459V58.392C67.9459 56.696 67.5219 55.408 66.6739 54.528C65.8259 53.632 64.6659 53.184 63.1939 53.184C61.6579 53.184 60.4259 53.688 59.4979 54.696C58.5699 55.688 58.1059 57.16 58.1059 59.112V66H57.6259V53.04H58.1059V56.688C58.4099 55.376 59.0259 54.392 59.9539 53.736C60.8979 53.08 61.9779 52.752 63.1939 52.752Z" fill="#00874A"/>
<path d="M35.8 49.104H35.9V49.004H35.8V49.104ZM35.8 49.536V49.636H35.9V49.536H35.8ZM30.88 49.536V49.436H30.78V49.536H30.88ZM30.88 66V66.1H30.98V66H30.88ZM30.4 66H30.3V66.1H30.4V66ZM30.4 49.536H30.5V49.436H30.4V49.536ZM25.48 49.536H25.38V49.636H25.48V49.536ZM25.48 49.104V49.004H25.38V49.104H25.48ZM35.7 49.104V49.536H35.9V49.104H35.7ZM35.8 49.436H30.88V49.636H35.8V49.436ZM30.78 49.536V66H30.98V49.536H30.78ZM30.88 65.9H30.4V66.1H30.88V65.9ZM30.5 66V49.536H30.3V66H30.5ZM30.4 49.436H25.48V49.636H30.4V49.436ZM25.58 49.536V49.104H25.38V49.536H25.58ZM25.48 49.204H35.8V49.004H25.48V49.204ZM47.6254 54.168L47.5559 54.2399L47.6254 54.168ZM49.0894 66V66.1H49.1894V66H49.0894ZM48.6334 66H48.5334V66.1H48.6334V66ZM47.3614 54.528L47.2888 54.5967L47.2894 54.5974L47.3614 54.528ZM40.1854 54.696L40.2585 54.7643L40.259 54.7637L40.1854 54.696ZM38.7934 66V66.1H38.8934V66H38.7934ZM38.3134 66H38.2134V66.1H38.3134V66ZM38.3134 48.24V48.14H38.2134V48.24H38.3134ZM38.7934 48.24H38.8934V48.14H38.7934V48.24ZM38.7934 56.688H38.6934L38.8909 56.7106L38.7934 56.688ZM40.6414 53.736L40.5844 53.6539L40.5837 53.6543L40.6414 53.736ZM43.8814 52.852C45.3789 52.852 46.6009 53.3161 47.5559 54.2399L47.695 54.0961C46.698 53.1319 45.424 52.652 43.8814 52.652V52.852ZM47.5559 54.2399C48.5057 55.1585 48.9894 56.552 48.9894 58.44H49.1894C49.1894 56.52 48.6972 55.0655 47.695 54.0961L47.5559 54.2399ZM48.9894 58.44V66H49.1894V58.44H48.9894ZM49.0894 65.9H48.6334V66.1H49.0894V65.9ZM48.7334 66V58.392H48.5334V66H48.7334ZM48.7334 58.392C48.7334 56.6803 48.3054 55.3635 47.4334 54.4586L47.2894 54.5974C48.1135 55.4525 48.5334 56.7117 48.5334 58.392H48.7334ZM47.4341 54.4593C46.5636 53.5395 45.3752 53.084 43.8814 53.084V53.284C45.3317 53.284 46.4633 53.7245 47.2888 54.5967L47.4341 54.4593ZM43.8814 53.084C42.3212 53.084 41.0612 53.5971 40.1119 54.6283L40.259 54.7637C41.1657 53.7789 42.3696 53.284 43.8814 53.284V53.084ZM40.1124 54.6277C39.1608 55.6449 38.6934 57.1457 38.6934 59.112H38.8934C38.8934 57.1743 39.3541 55.7311 40.2585 54.7643L40.1124 54.6277ZM38.6934 59.112V66H38.8934V59.112H38.6934ZM38.7934 65.9H38.3134V66.1H38.7934V65.9ZM38.4134 66V48.24H38.2134V66H38.4134ZM38.3134 48.34H38.7934V48.14H38.3134V48.34ZM38.6934 48.24V56.688H38.8934V48.24H38.6934ZM38.8909 56.7106C39.1904 55.4178 39.7948 54.457 40.6992 53.8177L40.5837 53.6543C39.6321 54.327 39.0045 55.3342 38.696 56.6654L38.8909 56.7106ZM40.6985 53.8181C41.6248 53.1745 42.6846 52.852 43.8814 52.852V52.652C42.6463 52.652 41.5461 52.9855 40.5844 53.6539L40.6985 53.8181ZM52.8396 48.624L52.7689 48.5533L52.8396 48.624ZM53.7276 48.624L53.6517 48.6904L53.6618 48.6993L53.7276 48.624ZM53.7276 49.56L53.6569 49.4893V49.4893L53.7276 49.56ZM52.8396 49.56L52.7637 49.6264L52.7738 49.6353L52.8396 49.56ZM53.5356 53.04H53.6356V52.94H53.5356V53.04ZM53.5356 66V66.1H53.6356V66H53.5356ZM53.0556 66H52.9556V66.1H53.0556V66ZM53.0556 53.04V52.94H52.9556V53.04H53.0556ZM52.7716 49.08C52.7716 48.9085 52.8209 48.7841 52.9103 48.6947L52.7689 48.5533C52.6343 48.6879 52.5716 48.8675 52.5716 49.08H52.7716ZM52.9103 48.6947C53.0202 48.5849 53.147 48.532 53.2956 48.532V48.332C53.0923 48.332 52.9151 48.4071 52.7689 48.5533L52.9103 48.6947ZM53.2956 48.532C53.4439 48.532 53.5601 48.5844 53.6524 48.6898L53.8029 48.5581C53.6712 48.4076 53.4993 48.332 53.2956 48.332V48.532ZM53.6618 48.6993C53.7651 48.7897 53.8196 48.9127 53.8196 49.08H54.0196C54.0196 48.8633 53.9461 48.6823 53.7935 48.5487L53.6618 48.6993ZM53.8196 49.08C53.8196 49.2473 53.7649 49.3813 53.6569 49.4893L53.7983 49.6307C53.9463 49.4827 54.0196 49.2967 54.0196 49.08H53.8196ZM53.6569 49.4893C53.5658 49.5804 53.4483 49.628 53.2956 49.628V49.828C53.4949 49.828 53.6654 49.7636 53.7983 49.6307L53.6569 49.4893ZM53.2956 49.628C53.1429 49.628 53.0146 49.5802 52.9055 49.4847L52.7738 49.6353C52.9207 49.7638 53.0963 49.828 53.2956 49.828V49.628ZM52.9149 49.4941C52.8209 49.3867 52.7716 49.2511 52.7716 49.08H52.5716C52.5716 49.2929 52.6343 49.4773 52.7644 49.6258L52.9149 49.4941ZM53.4356 53.04V66H53.6356V53.04H53.4356ZM53.5356 65.9H53.0556V66.1H53.5356V65.9ZM53.1556 66V53.04H52.9556V66H53.1556ZM53.0556 53.14H53.5356V52.94H53.0556V53.14ZM66.9379 54.168L66.8684 54.2399L66.9379 54.168ZM68.4019 66V66.1H68.5019V66H68.4019ZM67.9459 66H67.8459V66.1H67.9459V66ZM66.6739 54.528L66.6013 54.5967L66.6019 54.5974L66.6739 54.528ZM59.4979 54.696L59.571 54.7643L59.5715 54.7637L59.4979 54.696ZM58.1059 66V66.1H58.2059V66H58.1059ZM57.6259 66H57.5259V66.1H57.6259V66ZM57.6259 53.04V52.94H57.5259V53.04H57.6259ZM58.1059 53.04H58.2059V52.94H58.1059V53.04ZM58.1059 56.688H58.0059L58.2034 56.7106L58.1059 56.688ZM59.9539 53.736L59.8969 53.6539L59.8962 53.6543L59.9539 53.736ZM63.1939 52.852C64.6914 52.852 65.9134 53.3161 66.8684 54.2399L67.0075 54.0961C66.0105 53.1319 64.7365 52.652 63.1939 52.652V52.852ZM66.8684 54.2399C67.8182 55.1585 68.3019 56.552 68.3019 58.44H68.5019C68.5019 56.52 68.0097 55.0655 67.0075 54.0961L66.8684 54.2399ZM68.3019 58.44V66H68.5019V58.44H68.3019ZM68.4019 65.9H67.9459V66.1H68.4019V65.9ZM68.0459 66V58.392H67.8459V66H68.0459ZM68.0459 58.392C68.0459 56.6803 67.6179 55.3635 66.7459 54.4586L66.6019 54.5974C67.426 55.4525 67.8459 56.7117 67.8459 58.392H68.0459ZM66.7466 54.4593C65.8761 53.5395 64.6877 53.084 63.1939 53.084V53.284C64.6442 53.284 65.7758 53.7245 66.6013 54.5967L66.7466 54.4593ZM63.1939 53.084C61.6337 53.084 60.3737 53.5971 59.4244 54.6283L59.5715 54.7637C60.4782 53.7789 61.6821 53.284 63.1939 53.284V53.084ZM59.4249 54.6277C58.4733 55.6449 58.0059 57.1457 58.0059 59.112H58.2059C58.2059 57.1743 58.6666 55.7311 59.571 54.7643L59.4249 54.6277ZM58.0059 59.112V66H58.2059V59.112H58.0059ZM58.1059 65.9H57.6259V66.1H58.1059V65.9ZM57.7259 66V53.04H57.5259V66H57.7259ZM57.6259 53.14H58.1059V52.94H57.6259V53.14ZM58.0059 53.04V56.688H58.2059V53.04H58.0059ZM58.2034 56.7106C58.5029 55.4178 59.1073 54.457 60.0117 53.8177L59.8962 53.6543C58.9446 54.327 58.317 55.3342 58.0085 56.6654L58.2034 56.7106ZM60.011 53.8181C60.9373 53.1745 61.9971 52.852 63.1939 52.852V52.652C61.9588 52.652 60.8586 52.9855 59.8969 53.6539L60.011 53.8181Z" fill="#2B2B2D" mask="url(#path-2-outside-1_2887_756)"/>
<path d="M136.224 95.32V112H133.464V99.496L128.64 112H126.24L121.392 99.496V112H118.656V95.32H121.968L127.488 108.64L132.912 95.32H136.224ZM151.803 104.752C151.803 105.2 151.771 105.592 151.707 105.928H141.531C141.579 107.288 141.955 108.296 142.659 108.952C143.363 109.608 144.235 109.936 145.275 109.936C146.187 109.936 146.955 109.704 147.579 109.24C148.219 108.776 148.611 108.16 148.755 107.392H151.683C151.507 108.32 151.139 109.144 150.579 109.864C150.019 110.584 149.291 111.152 148.395 111.568C147.499 111.968 146.499 112.168 145.395 112.168C144.115 112.168 142.979 111.896 141.987 111.352C141.011 110.808 140.243 110.024 139.683 109C139.123 107.976 138.843 106.768 138.843 105.376C138.843 104 139.123 102.8 139.683 101.776C140.243 100.752 141.011 99.968 141.987 99.424C142.979 98.88 144.115 98.608 145.395 98.608C146.691 98.608 147.819 98.88 148.779 99.424C149.755 99.952 150.499 100.688 151.011 101.632C151.539 102.56 151.803 103.6 151.803 104.752ZM149.043 104.68C149.075 103.816 148.923 103.096 148.587 102.52C148.267 101.928 147.819 101.496 147.243 101.224C146.683 100.936 146.067 100.792 145.395 100.792C144.323 100.792 143.427 101.12 142.707 101.776C141.987 102.432 141.595 103.4 141.531 104.68H149.043ZM159.749 98.608C160.949 98.608 161.973 98.904 162.821 99.496C163.669 100.088 164.261 100.872 164.597 101.848V94.24H167.357V112H164.597V108.928C164.261 109.904 163.669 110.688 162.821 111.28C161.973 111.872 160.949 112.168 159.749 112.168C158.597 112.168 157.565 111.896 156.653 111.352C155.757 110.808 155.053 110.024 154.541 109C154.029 107.976 153.773 106.768 153.773 105.376C153.773 104 154.029 102.8 154.541 101.776C155.053 100.752 155.757 99.968 156.653 99.424C157.565 98.88 158.597 98.608 159.749 98.608ZM160.589 101.008C159.373 101.008 158.397 101.4 157.661 102.184C156.941 102.952 156.581 104.016 156.581 105.376C156.581 106.736 156.941 107.808 157.661 108.592C158.397 109.36 159.373 109.744 160.589 109.744C161.357 109.744 162.045 109.568 162.653 109.216C163.261 108.848 163.741 108.336 164.093 107.68C164.445 107.024 164.621 106.256 164.621 105.376C164.621 104.512 164.445 103.752 164.093 103.096C163.741 102.424 163.261 101.912 162.653 101.56C162.045 101.192 161.357 101.008 160.589 101.008ZM170.256 94.936C170.256 94.472 170.416 94.088 170.736 93.784C171.056 93.48 171.48 93.328 172.008 93.328C172.536 93.328 172.96 93.48 173.28 93.784C173.616 94.088 173.784 94.472 173.784 94.936C173.784 95.4 173.616 95.776 173.28 96.064C172.96 96.352 172.536 96.496 172.008 96.496C171.48 96.496 171.056 96.352 170.736 96.064C170.416 95.776 170.256 95.4 170.256 94.936ZM173.376 98.776V112H170.64V98.776H173.376ZM188.879 98.776V112H186.119V109.12C185.783 110.096 185.199 110.856 184.367 111.4C183.535 111.928 182.567 112.192 181.463 112.192C179.927 112.192 178.695 111.696 177.767 110.704C176.839 109.712 176.375 108.296 176.375 106.456V98.776H179.111V106.168C179.111 107.368 179.415 108.296 180.023 108.952C180.631 109.592 181.463 109.912 182.519 109.912C183.607 109.912 184.479 109.56 185.135 108.856C185.791 108.152 186.119 107.128 186.119 105.784V98.776H188.879ZM208.692 98.56C210.26 98.56 211.508 99.056 212.436 100.048C213.38 101.04 213.852 102.456 213.852 104.296V112H211.116V104.584C211.116 103.432 210.828 102.544 210.252 101.92C209.676 101.28 208.884 100.96 207.876 100.96C206.804 100.96 205.948 101.304 205.308 101.992C204.684 102.664 204.372 103.656 204.372 104.968V112H201.636V104.584C201.636 103.432 201.348 102.544 200.772 101.92C200.196 101.28 199.404 100.96 198.396 100.96C197.324 100.96 196.468 101.304 195.828 101.992C195.204 102.664 194.892 103.656 194.892 104.968V112H192.156V98.776H194.892V101.536C195.228 100.576 195.788 99.84 196.572 99.328C197.356 98.816 198.276 98.56 199.332 98.56C200.436 98.56 201.388 98.832 202.188 99.376C203.004 99.92 203.596 100.704 203.964 101.728C204.348 100.736 204.964 99.96 205.812 99.4C206.66 98.84 207.62 98.56 208.692 98.56Z" fill="#00874A"/>
<path d="M219.024 44.776V47.584H224.52V51.16H219.024V54.232H225.24V58H214.296V41.008H225.24V44.776H219.024ZM236.038 58L233.518 54.568L231.574 58H226.366L230.854 50.944L226.174 44.536H231.454L233.95 47.944L235.918 44.536H241.126L236.494 51.424L241.318 58H236.038ZM250.695 53.968V58H248.751C247.103 58 245.815 57.592 244.887 56.776C243.959 55.96 243.495 54.608 243.495 52.72V48.472H241.767V44.536H243.495V41.272H248.223V44.536H250.647V48.472H248.223V52.816C248.223 53.232 248.311 53.528 248.487 53.704C248.679 53.88 248.991 53.968 249.423 53.968H250.695ZM257.579 47.056C258.107 46.256 258.771 45.616 259.571 45.136C260.371 44.656 261.219 44.416 262.115 44.416V49.456H260.747C259.691 49.456 258.899 49.664 258.371 50.08C257.843 50.48 257.579 51.184 257.579 52.192V58H252.851V44.536H257.579V47.056ZM268.671 44.368C269.615 44.368 270.431 44.576 271.119 44.992C271.823 45.392 272.343 45.952 272.679 46.672V44.536H277.383V58H272.679V55.864C272.343 56.584 271.823 57.152 271.119 57.568C270.431 57.968 269.615 58.168 268.671 58.168C267.599 58.168 266.631 57.896 265.767 57.352C264.903 56.792 264.223 55.992 263.727 54.952C263.231 53.896 262.983 52.664 262.983 51.256C262.983 49.848 263.231 48.624 263.727 47.584C264.223 46.544 264.903 45.752 265.767 45.208C266.631 44.648 267.599 44.368 268.671 44.368ZM270.231 48.496C269.495 48.496 268.895 48.744 268.431 49.24C267.983 49.72 267.759 50.392 267.759 51.256C267.759 52.136 267.983 52.824 268.431 53.32C268.895 53.8 269.495 54.04 270.231 54.04C270.935 54.04 271.519 53.792 271.983 53.296C272.447 52.8 272.679 52.12 272.679 51.256C272.679 50.408 272.447 49.736 271.983 49.24C271.519 48.744 270.935 48.496 270.231 48.496ZM290.768 49.264C291.776 49.504 292.568 50 293.144 50.752C293.736 51.504 294.032 52.376 294.032 53.368C294.032 54.84 293.544 55.984 292.568 56.8C291.592 57.6 290.192 58 288.368 58H279.968V41.008H288.176C289.888 41.008 291.224 41.384 292.184 42.136C293.16 42.888 293.648 43.976 293.648 45.4C293.648 46.408 293.384 47.256 292.856 47.944C292.328 48.616 291.632 49.056 290.768 49.264ZM284.696 47.8H287.072C288.256 47.8 288.848 47.304 288.848 46.312C288.848 45.288 288.248 44.776 287.048 44.776H284.696V47.8ZM287.36 54.208C288.592 54.208 289.208 53.696 289.208 52.672C289.208 51.616 288.592 51.088 287.36 51.088H284.696V54.208H287.36ZM302.383 44.368C303.727 44.368 304.927 44.648 305.983 45.208C307.055 45.752 307.895 46.552 308.503 47.608C309.111 48.648 309.415 49.864 309.415 51.256C309.415 52.664 309.111 53.888 308.503 54.928C307.895 55.968 307.055 56.768 305.983 57.328C304.927 57.888 303.727 58.168 302.383 58.168C301.039 58.168 299.831 57.888 298.759 57.328C297.687 56.768 296.847 55.968 296.239 54.928C295.631 53.888 295.327 52.664 295.327 51.256C295.327 49.848 295.631 48.624 296.239 47.584C296.847 46.544 297.687 45.752 298.759 45.208C299.831 44.648 301.039 44.368 302.383 44.368ZM302.383 48.448C301.727 48.448 301.183 48.688 300.751 49.168C300.319 49.648 300.103 50.344 300.103 51.256C300.103 52.184 300.319 52.888 300.751 53.368C301.183 53.848 301.727 54.088 302.383 54.088C303.023 54.088 303.559 53.848 303.991 53.368C304.423 52.872 304.639 52.168 304.639 51.256C304.639 50.344 304.423 49.648 303.991 49.168C303.559 48.688 303.023 48.448 302.383 48.448ZM316.032 40.24V58H311.304V40.24H316.032ZM323.632 44.368C324.576 44.368 325.392 44.576 326.08 44.992C326.768 45.392 327.28 45.952 327.616 46.672V40.24H332.344V58H327.616V55.864C327.28 56.584 326.768 57.152 326.08 57.568C325.392 57.968 324.576 58.168 323.632 58.168C322.56 58.168 321.592 57.896 320.728 57.352C319.864 56.792 319.184 55.992 318.688 54.952C318.192 53.896 317.944 52.664 317.944 51.256C317.944 49.848 318.192 48.624 318.688 47.584C319.184 46.544 319.864 45.752 320.728 45.208C321.592 44.648 322.56 44.368 323.632 44.368ZM325.192 48.496C324.456 48.496 323.856 48.744 323.392 49.24C322.944 49.72 322.72 50.392 322.72 51.256C322.72 52.136 322.944 52.824 323.392 53.32C323.856 53.8 324.456 54.04 325.192 54.04C325.896 54.04 326.48 53.792 326.944 53.296C327.408 52.8 327.64 52.12 327.64 51.256C327.64 50.408 327.408 49.736 326.944 49.24C326.48 48.744 325.896 48.496 325.192 48.496Z" fill="#00874A"/>
<path d="M235.176 247.368C235.176 248.232 234.96 249.032 234.528 249.768C234.096 250.488 233.456 251.072 232.608 251.52C231.76 251.952 230.728 252.168 229.512 252.168C228.312 252.168 227.24 251.968 226.296 251.568C225.352 251.152 224.592 250.56 224.016 249.792C223.456 249.024 223.136 248.128 223.056 247.104H226.656C226.736 247.792 227.008 248.368 227.472 248.832C227.952 249.28 228.584 249.504 229.368 249.504C230.072 249.504 230.608 249.32 230.976 248.952C231.36 248.568 231.552 248.08 231.552 247.488C231.552 246.96 231.4 246.528 231.096 246.192C230.792 245.84 230.408 245.56 229.944 245.352C229.48 245.144 228.84 244.904 228.024 244.632C226.968 244.28 226.104 243.936 225.432 243.6C224.76 243.248 224.184 242.744 223.704 242.088C223.24 241.432 223.008 240.576 223.008 239.52C223.008 238.064 223.528 236.92 224.568 236.088C225.624 235.24 227.016 234.816 228.744 234.816C230.536 234.816 231.96 235.248 233.016 236.112C234.088 236.976 234.696 238.128 234.84 239.568H231.192C231.096 238.96 230.84 238.464 230.424 238.08C230.008 237.68 229.44 237.48 228.72 237.48C228.096 237.48 227.592 237.648 227.208 237.984C226.824 238.304 226.632 238.776 226.632 239.4C226.632 239.896 226.776 240.312 227.064 240.648C227.368 240.968 227.744 241.232 228.192 241.44C228.656 241.648 229.28 241.88 230.064 242.136C231.152 242.52 232.032 242.88 232.704 243.216C233.392 243.552 233.976 244.056 234.456 244.728C234.936 245.4 235.176 246.28 235.176 247.368ZM250.173 244.848C250.173 245.184 250.133 245.568 250.053 246H240.309C240.357 247.184 240.677 248.056 241.269 248.616C241.861 249.176 242.597 249.456 243.477 249.456C244.261 249.456 244.909 249.264 245.421 248.88C245.949 248.496 246.285 247.976 246.429 247.32H250.005C249.829 248.248 249.453 249.08 248.877 249.816C248.301 250.552 247.557 251.128 246.645 251.544C245.749 251.96 244.749 252.168 243.645 252.168C242.349 252.168 241.197 251.896 240.189 251.352C239.181 250.792 238.397 250 237.837 248.976C237.277 247.952 236.997 246.744 236.997 245.352C236.997 243.96 237.277 242.752 237.837 241.728C238.397 240.688 239.181 239.896 240.189 239.352C241.197 238.808 242.349 238.536 243.645 238.536C244.957 238.536 246.101 238.808 247.077 239.352C248.069 239.896 248.829 240.648 249.357 241.608C249.901 242.552 250.173 243.632 250.173 244.848ZM246.765 244.512C246.813 243.424 246.525 242.6 245.901 242.04C245.293 241.48 244.541 241.2 243.645 241.2C242.733 241.2 241.965 241.48 241.341 242.04C240.717 242.6 240.373 243.424 240.309 244.512H246.765ZM269.495 238.512C271.111 238.512 272.383 239.016 273.311 240.024C274.255 241.016 274.727 242.432 274.727 244.272V252H271.367V244.656C271.367 243.632 271.103 242.848 270.575 242.304C270.063 241.744 269.351 241.464 268.439 241.464C267.495 241.464 266.743 241.76 266.183 242.352C265.623 242.944 265.343 243.808 265.343 244.944V252H261.983V244.656C261.983 243.632 261.719 242.848 261.191 242.304C260.679 241.744 259.967 241.464 259.055 241.464C258.111 241.464 257.359 241.76 256.799 242.352C256.239 242.944 255.959 243.808 255.959 244.944V252H252.575V238.704H255.959V241.224C256.311 240.36 256.863 239.696 257.615 239.232C258.383 238.752 259.271 238.512 260.279 238.512C261.351 238.512 262.279 238.768 263.063 239.28C263.863 239.792 264.463 240.528 264.863 241.488C265.279 240.576 265.895 239.856 266.711 239.328C267.543 238.784 268.471 238.512 269.495 238.512ZM277.316 234.888C277.316 234.344 277.508 233.904 277.892 233.568C278.276 233.216 278.78 233.04 279.404 233.04C280.028 233.04 280.532 233.216 280.916 233.568C281.3 233.904 281.492 234.344 281.492 234.888C281.492 235.416 281.3 235.856 280.916 236.208C280.532 236.544 280.028 236.712 279.404 236.712C278.78 236.712 278.276 236.544 277.892 236.208C277.508 235.856 277.316 235.416 277.316 234.888ZM281.084 238.704V252H277.7V238.704H281.084ZM293.601 243.264C294.625 243.472 295.441 243.96 296.049 244.728C296.673 245.48 296.985 246.368 296.985 247.392C296.985 248.816 296.505 249.944 295.545 250.776C294.601 251.592 293.225 252 291.417 252H284.145V235.056H291.273C292.985 235.056 294.297 235.432 295.209 236.184C296.137 236.936 296.601 237.992 296.601 239.352C296.601 240.408 296.321 241.272 295.761 241.944C295.217 242.616 294.497 243.056 293.601 243.264ZM287.529 242.16H290.577C291.425 242.16 292.065 241.976 292.497 241.608C292.945 241.224 293.169 240.68 293.169 239.976C293.169 239.272 292.953 238.728 292.521 238.344C292.089 237.96 291.425 237.768 290.529 237.768H287.529V242.16ZM290.745 249.24C291.641 249.24 292.329 249.048 292.809 248.664C293.289 248.264 293.529 247.688 293.529 246.936C293.529 246.184 293.281 245.608 292.785 245.208C292.305 244.792 291.617 244.584 290.721 244.584H287.529V249.24H290.745ZM305.5 238.536C306.796 238.536 307.956 238.808 308.98 239.352C310.02 239.896 310.836 240.688 311.428 241.728C312.02 242.752 312.316 243.96 312.316 245.352C312.316 246.744 312.02 247.952 311.428 248.976C310.836 250 310.02 250.792 308.98 251.352C307.956 251.896 306.796 252.168 305.5 252.168C304.204 252.168 303.036 251.896 301.996 251.352C300.972 250.792 300.164 250 299.572 248.976C298.98 247.952 298.684 246.744 298.684 245.352C298.684 243.96 298.98 242.752 299.572 241.728C300.164 240.688 300.972 239.896 301.996 239.352C303.036 238.808 304.204 238.536 305.5 238.536ZM305.5 241.464C304.556 241.464 303.756 241.8 303.1 242.472C302.444 243.128 302.116 244.088 302.116 245.352C302.116 246.616 302.444 247.584 303.1 248.256C303.756 248.912 304.556 249.24 305.5 249.24C306.444 249.24 307.244 248.912 307.9 248.256C308.556 247.584 308.884 246.616 308.884 245.352C308.884 244.088 308.556 243.128 307.9 242.472C307.244 241.8 306.444 241.464 305.5 241.464ZM318.092 234.24V252H314.708V234.24H318.092ZM326.361 238.536C327.481 238.536 328.433 238.8 329.217 239.328C330.017 239.856 330.593 240.568 330.945 241.464V234.24H334.305V252H330.945V249.216C330.593 250.112 330.017 250.832 329.217 251.376C328.433 251.904 327.481 252.168 326.361 252.168C325.241 252.168 324.233 251.896 323.337 251.352C322.441 250.808 321.737 250.024 321.225 249C320.729 247.96 320.481 246.744 320.481 245.352C320.481 243.96 320.729 242.752 321.225 241.728C321.737 240.688 322.441 239.896 323.337 239.352C324.233 238.808 325.241 238.536 326.361 238.536ZM327.417 241.488C326.361 241.488 325.513 241.832 324.873 242.52C324.233 243.208 323.913 244.152 323.913 245.352C323.913 246.552 324.233 247.496 324.873 248.184C325.513 248.856 326.361 249.192 327.417 249.192C328.441 249.192 329.281 248.848 329.937 248.16C330.609 247.456 330.945 246.52 330.945 245.352C330.945 244.168 330.609 243.232 329.937 242.544C329.281 241.84 328.441 241.488 327.417 241.488Z" fill="#00874A"/>
<path d="M163.024 182.992V190.096H169.864V190.96H163.024V198.088H170.584V199H161.944V182.08H170.584V182.992H163.024ZM180.814 199L177.022 193.24L173.398 199H172.198L176.422 192.328L172.246 185.968H173.494L177.166 191.536L180.742 185.968H181.942L177.766 192.448L182.062 199H180.814ZM186.1 186.952V195.328C186.1 196.368 186.284 197.08 186.652 197.464C187.02 197.832 187.668 198.016 188.596 198.016H189.964V199H188.476C187.276 199 186.396 198.72 185.836 198.16C185.292 197.6 185.02 196.656 185.02 195.328V186.952H182.956V185.968H185.02V182.656H186.1V185.968H189.964V186.952H186.1ZM193.915 188.848C194.251 187.824 194.843 187.048 195.691 186.52C196.539 185.976 197.619 185.704 198.931 185.704V186.88H198.571C197.259 186.88 196.155 187.248 195.259 187.984C194.363 188.72 193.915 189.912 193.915 191.56V199H192.835V185.968H193.915V188.848ZM206.911 185.8C208.335 185.8 209.535 186.176 210.511 186.928C211.487 187.664 212.151 188.64 212.503 189.856V185.968H213.583V199H212.503V195.112C212.151 196.328 211.487 197.312 210.511 198.064C209.535 198.8 208.335 199.168 206.911 199.168C205.695 199.168 204.615 198.904 203.671 198.376C202.743 197.832 202.015 197.056 201.487 196.048C200.959 195.024 200.695 193.832 200.695 192.472C200.695 191.112 200.959 189.928 201.487 188.92C202.015 187.912 202.743 187.144 203.671 186.616C204.615 186.072 205.695 185.8 206.911 185.8ZM207.151 186.76C205.519 186.76 204.215 187.272 203.239 188.296C202.279 189.32 201.799 190.712 201.799 192.472C201.799 194.248 202.279 195.648 203.239 196.672C204.199 197.696 205.503 198.208 207.151 198.208C208.175 198.208 209.095 197.976 209.911 197.512C210.727 197.032 211.359 196.36 211.807 195.496C212.271 194.616 212.503 193.608 212.503 192.472C212.503 191.336 212.271 190.336 211.807 189.472C211.359 188.608 210.727 187.944 209.911 187.48C209.095 187 208.175 186.76 207.151 186.76ZM218.524 198.112H224.836V199H217.444V182.08H218.524V198.112ZM226.88 182.032C226.88 181.776 226.96 181.568 227.12 181.408C227.296 181.232 227.52 181.144 227.792 181.144C228.064 181.144 228.288 181.232 228.464 181.408C228.64 181.568 228.728 181.776 228.728 182.032C228.728 182.304 228.64 182.528 228.464 182.704C228.288 182.864 228.064 182.944 227.792 182.944C227.52 182.944 227.296 182.864 227.12 182.704C226.96 182.528 226.88 182.304 226.88 182.032ZM228.344 185.968V199H227.264V185.968H228.344ZM237.825 185.8C239.249 185.8 240.449 186.176 241.425 186.928C242.401 187.664 243.065 188.64 243.417 189.856V185.968H244.497V199.384C244.497 200.584 244.233 201.64 243.705 202.552C243.193 203.464 242.481 204.16 241.569 204.64C240.673 205.136 239.681 205.384 238.593 205.384C236.961 205.384 235.609 204.984 234.537 204.184C233.481 203.4 232.777 202.328 232.425 200.968H233.481C233.801 202.024 234.393 202.864 235.257 203.488C236.121 204.112 237.217 204.424 238.545 204.424C239.457 204.424 240.281 204.216 241.017 203.8C241.769 203.4 242.353 202.816 242.769 202.048C243.201 201.296 243.417 200.408 243.417 199.384V195.112C243.065 196.328 242.401 197.312 241.425 198.064C240.449 198.8 239.249 199.168 237.825 199.168C236.609 199.168 235.529 198.904 234.585 198.376C233.657 197.832 232.929 197.056 232.401 196.048C231.873 195.024 231.609 193.832 231.609 192.472C231.609 191.112 231.873 189.928 232.401 188.92C232.929 187.912 233.657 187.144 234.585 186.616C235.529 186.072 236.609 185.8 237.825 185.8ZM238.065 186.76C236.433 186.76 235.129 187.272 234.153 188.296C233.193 189.32 232.713 190.712 232.713 192.472C232.713 194.248 233.193 195.648 234.153 196.672C235.113 197.696 236.417 198.208 238.065 198.208C239.089 198.208 240.009 197.976 240.825 197.512C241.641 197.032 242.273 196.36 242.721 195.496C243.185 194.616 243.417 193.608 243.417 192.472C243.417 191.336 243.185 190.336 242.721 189.472C242.273 188.608 241.641 187.944 240.825 187.48C240.009 187 239.089 186.76 238.065 186.76ZM254.406 185.704C255.942 185.704 257.19 186.184 258.15 187.144C259.11 188.104 259.59 189.52 259.59 191.392V199H258.51V191.44C258.51 189.872 258.118 188.68 257.334 187.864C256.55 187.032 255.478 186.616 254.118 186.616C252.71 186.616 251.574 187.08 250.71 188.008C249.862 188.92 249.438 190.272 249.438 192.064V199H248.358V181.24H249.438V189.4C249.758 188.184 250.366 187.264 251.262 186.64C252.174 186.016 253.222 185.704 254.406 185.704ZM264.991 186.952V195.328C264.991 196.368 265.175 197.08 265.543 197.464C265.911 197.832 266.559 198.016 267.487 198.016H268.855V199H267.367C266.167 199 265.287 198.72 264.727 198.16C264.183 197.6 263.911 196.656 263.911 195.328V186.952H261.847V185.968H263.911V182.656H264.991V185.968H268.855V186.952H264.991Z" fill="#00874A"/>
<path d="M30.592 147.264C31.616 147.504 32.424 148 33.016 148.752C33.624 149.504 33.928 150.376 33.928 151.368C33.928 152.824 33.44 153.96 32.464 154.776C31.504 155.592 30.12 156 28.312 156H20.416V139.032H28.12C29.848 139.032 31.184 139.408 32.128 140.16C33.072 140.912 33.544 141.984 33.544 143.376C33.544 144.4 33.272 145.256 32.728 145.944C32.184 146.616 31.472 147.056 30.592 147.264ZM24.52 145.968H27.208C28.632 145.968 29.344 145.36 29.344 144.144C29.344 142.928 28.616 142.32 27.16 142.32H24.52V145.968ZM27.448 152.664C28.968 152.664 29.728 152.04 29.728 150.792C29.728 150.184 29.528 149.712 29.128 149.376C28.728 149.024 28.16 148.848 27.424 148.848H24.52V152.664H27.448ZM42.3597 142.44C43.6877 142.44 44.8717 142.72 45.9117 143.28C46.9677 143.824 47.7917 144.616 48.3837 145.656C48.9917 146.696 49.2957 147.912 49.2957 149.304C49.2957 150.696 48.9917 151.912 48.3837 152.952C47.7917 153.992 46.9677 154.792 45.9117 155.352C44.8717 155.896 43.6877 156.168 42.3597 156.168C41.0317 156.168 39.8397 155.896 38.7837 155.352C37.7277 154.792 36.8957 153.992 36.2877 152.952C35.6957 151.912 35.3997 150.696 35.3997 149.304C35.3997 147.912 35.6957 146.696 36.2877 145.656C36.8957 144.616 37.7277 143.824 38.7837 143.28C39.8397 142.72 41.0317 142.44 42.3597 142.44ZM42.3597 145.992C41.5757 145.992 40.9117 146.28 40.3677 146.856C39.8397 147.416 39.5757 148.232 39.5757 149.304C39.5757 150.376 39.8397 151.192 40.3677 151.752C40.9117 152.312 41.5757 152.592 42.3597 152.592C43.1437 152.592 43.7997 152.312 44.3277 151.752C44.8557 151.192 45.1197 150.376 45.1197 149.304C45.1197 148.232 44.8557 147.416 44.3277 146.856C43.7997 146.28 43.1437 145.992 42.3597 145.992ZM55.5278 138.24V156H51.4238V138.24H55.5278ZM63.4493 142.44C64.4733 142.44 65.3533 142.672 66.0893 143.136C66.8253 143.6 67.3613 144.232 67.6973 145.032V138.24H71.8013V156H67.6973V153.576C67.3613 154.376 66.8253 155.008 66.0893 155.472C65.3533 155.936 64.4733 156.168 63.4493 156.168C62.3453 156.168 61.3533 155.896 60.4733 155.352C59.6093 154.792 58.9213 153.992 58.4093 152.952C57.9133 151.912 57.6653 150.696 57.6653 149.304C57.6653 147.896 57.9133 146.68 58.4093 145.656C58.9213 144.616 59.6093 143.824 60.4733 143.28C61.3533 142.72 62.3453 142.44 63.4493 142.44ZM64.7693 146.04C63.8893 146.04 63.1773 146.328 62.6333 146.904C62.1053 147.48 61.8413 148.28 61.8413 149.304C61.8413 150.328 62.1053 151.128 62.6333 151.704C63.1773 152.28 63.8893 152.568 64.7693 152.568C65.6333 152.568 66.3373 152.272 66.8813 151.68C67.4413 151.088 67.7213 150.296 67.7213 149.304C67.7213 148.296 67.4413 147.504 66.8813 146.928C66.3373 146.336 65.6333 146.04 64.7693 146.04Z" fill="#00874A"/>
<path d="M35.728 251L31.312 244.088H28.936V251H26.752V234.08H32.32C34.24 234.08 35.68 234.544 36.64 235.472C37.6 236.384 38.08 237.6 38.08 239.12C38.08 240.496 37.696 241.608 36.928 242.456C36.16 243.288 35.048 243.808 33.592 244.016L38.2 251H35.728ZM28.936 242.504H32.128C34.608 242.504 35.848 241.416 35.848 239.24C35.848 237.064 34.608 235.976 32.128 235.976H28.936V242.504ZM52.8642 243.68C52.8642 244.144 52.8322 244.544 52.7682 244.88H42.2322C42.2802 246.384 42.7042 247.512 43.5042 248.264C44.3202 249.016 45.3122 249.392 46.4802 249.392C47.5362 249.392 48.4162 249.128 49.1202 248.6C49.8402 248.056 50.2802 247.336 50.4402 246.44H52.7682C52.6082 247.352 52.2482 248.168 51.6882 248.888C51.1442 249.608 50.4322 250.168 49.5522 250.568C48.6722 250.968 47.6802 251.168 46.5762 251.168C45.3122 251.168 44.1922 250.896 43.2162 250.352C42.2402 249.808 41.4722 249.032 40.9122 248.024C40.3682 247 40.0962 245.8 40.0962 244.424C40.0962 243.048 40.3682 241.848 40.9122 240.824C41.4722 239.8 42.2402 239.016 43.2162 238.472C44.1922 237.928 45.3122 237.656 46.5762 237.656C47.8562 237.656 48.9682 237.928 49.9122 238.472C50.8722 239.016 51.6002 239.744 52.0962 240.656C52.6082 241.568 52.8642 242.576 52.8642 243.68ZM50.6562 243.824C50.7042 242.848 50.5442 242.032 50.1762 241.376C49.8082 240.72 49.3042 240.232 48.6642 239.912C48.0242 239.592 47.3282 239.432 46.5762 239.432C45.3762 239.432 44.3682 239.808 43.5522 240.56C42.7362 241.296 42.2962 242.384 42.2322 243.824H50.6562ZM61.1208 237.656C62.4008 237.656 63.4808 237.976 64.3608 238.616C65.2568 239.256 65.8808 240.112 66.2328 241.184V237.824H68.4168V251.216C68.4168 252.432 68.1608 253.512 67.6488 254.456C67.1368 255.4 66.4168 256.136 65.4888 256.664C64.5608 257.192 63.4808 257.456 62.2488 257.456C60.4728 257.456 59.0248 257.024 57.9048 256.16C56.7848 255.312 56.0728 254.16 55.7688 252.704H57.9288C58.1848 253.584 58.6648 254.272 59.3688 254.768C60.0888 255.28 61.0088 255.536 62.1288 255.536C63.3128 255.536 64.2888 255.152 65.0568 254.384C65.8408 253.632 66.2328 252.576 66.2328 251.216V247.64C65.8808 248.712 65.2568 249.568 64.3608 250.208C63.4808 250.848 62.4008 251.168 61.1208 251.168C59.9528 251.168 58.9128 250.896 58.0008 250.352C57.0888 249.808 56.3688 249.032 55.8408 248.024C55.3288 247 55.0728 245.8 55.0728 244.424C55.0728 243.048 55.3288 241.848 55.8408 240.824C56.3688 239.8 57.0888 239.016 58.0008 238.472C58.9128 237.928 59.9528 237.656 61.1208 237.656ZM61.7448 239.6C60.4008 239.6 59.3208 240.032 58.5048 240.896C57.7048 241.744 57.3048 242.92 57.3048 244.424C57.3048 245.928 57.7048 247.112 58.5048 247.976C59.3208 248.824 60.4008 249.248 61.7448 249.248C62.6088 249.248 63.3768 249.048 64.0488 248.648C64.7368 248.248 65.2728 247.688 65.6568 246.968C66.0408 246.232 66.2328 245.384 66.2328 244.424C66.2328 243.464 66.0408 242.616 65.6568 241.88C65.2728 241.144 64.7368 240.584 64.0488 240.2C63.3768 239.8 62.6088 239.6 61.7448 239.6ZM83.6046 237.824V251H81.4206V247.904C81.0846 248.976 80.4846 249.8 79.6206 250.376C78.7726 250.936 77.7806 251.216 76.6446 251.216C75.1246 251.216 73.8926 250.728 72.9486 249.752C72.0046 248.76 71.5326 247.344 71.5326 245.504V237.824H73.7166V245.288C73.7166 246.6 74.0526 247.616 74.7246 248.336C75.3966 249.04 76.3086 249.392 77.4606 249.392C78.6606 249.392 79.6206 249.008 80.3406 248.24C81.0606 247.456 81.4206 246.32 81.4206 244.832V237.824H83.6046ZM89.2876 233.24V251H87.1036V233.24H89.2876ZM98.1989 237.656C99.4789 237.656 100.559 237.976 101.439 238.616C102.335 239.256 102.959 240.112 103.311 241.184V237.824H105.495V251H103.311V247.64C102.959 248.712 102.335 249.568 101.439 250.208C100.559 250.848 99.4789 251.168 98.1989 251.168C97.0309 251.168 95.9909 250.896 95.0789 250.352C94.1669 249.808 93.4469 249.032 92.9189 248.024C92.4069 247 92.1509 245.8 92.1509 244.424C92.1509 243.048 92.4069 241.848 92.9189 240.824C93.4469 239.8 94.1669 239.016 95.0789 238.472C95.9909 237.928 97.0309 237.656 98.1989 237.656ZM98.8229 239.6C97.4789 239.6 96.3989 240.032 95.5829 240.896C94.7829 241.744 94.3829 242.92 94.3829 244.424C94.3829 245.928 94.7829 247.112 95.5829 247.976C96.3989 248.824 97.4789 249.248 98.8229 249.248C99.6869 249.248 100.455 249.048 101.127 248.648C101.815 248.248 102.351 247.688 102.735 246.968C103.119 246.232 103.311 245.384 103.311 244.424C103.311 243.464 103.119 242.616 102.735 241.88C102.351 241.144 101.815 240.584 101.127 240.2C100.455 239.8 99.6869 239.6 98.8229 239.6ZM111.155 240.488C111.587 239.576 112.219 238.872 113.051 238.376C113.883 237.864 114.875 237.608 116.027 237.608V239.984H115.355C114.123 239.984 113.115 240.304 112.331 240.944C111.547 241.568 111.155 242.608 111.155 244.064V251H108.971V237.824H111.155V240.488Z" fill="#00874A"/>
<path d="M142.576 274.288C143.6 274.528 144.392 275.024 144.952 275.776C145.528 276.512 145.816 277.368 145.816 278.344C145.816 279.832 145.32 280.984 144.328 281.8C143.352 282.6 141.944 283 140.104 283H131.2V266.008H139.864C141.592 266.008 142.952 266.384 143.944 267.136C144.936 267.888 145.432 268.984 145.432 270.424C145.432 271.416 145.168 272.256 144.64 272.944C144.128 273.616 143.44 274.064 142.576 274.288ZM136.528 272.632H138.592C139.072 272.632 139.424 272.536 139.648 272.344C139.888 272.152 140.008 271.856 140.008 271.456C140.008 271.04 139.888 270.736 139.648 270.544C139.424 270.336 139.072 270.232 138.592 270.232H136.528V272.632ZM138.952 278.728C139.432 278.728 139.784 278.64 140.008 278.464C140.248 278.272 140.368 277.968 140.368 277.552C140.368 276.736 139.896 276.328 138.952 276.328H136.528V278.728H138.952ZM152.934 265.24V283H147.606V265.24H152.934ZM160.213 269.296C161.093 269.296 161.853 269.48 162.493 269.848C163.133 270.2 163.621 270.688 163.957 271.312V269.464H169.261V283H163.957V281.152C163.621 281.776 163.133 282.272 162.493 282.64C161.853 282.992 161.093 283.168 160.213 283.168C159.157 283.168 158.205 282.896 157.357 282.352C156.509 281.792 155.837 280.992 155.341 279.952C154.861 278.896 154.621 277.656 154.621 276.232C154.621 274.808 154.861 273.576 155.341 272.536C155.837 271.48 156.509 270.68 157.357 270.136C158.205 269.576 159.157 269.296 160.213 269.296ZM161.989 273.952C161.413 273.952 160.941 274.152 160.573 274.552C160.205 274.952 160.021 275.512 160.021 276.232C160.021 276.952 160.205 277.512 160.573 277.912C160.941 278.312 161.413 278.512 161.989 278.512C162.565 278.512 163.037 278.312 163.405 277.912C163.773 277.512 163.957 276.952 163.957 276.232C163.957 275.512 163.773 274.952 163.405 274.552C163.037 274.152 162.565 273.952 161.989 273.952ZM177.845 269.296C179.605 269.296 181.085 269.792 182.285 270.784C183.501 271.776 184.269 273.152 184.589 274.912H178.949C178.741 274.208 178.333 273.856 177.725 273.856C177.293 273.856 176.949 274.056 176.693 274.456C176.453 274.856 176.333 275.448 176.333 276.232C176.333 277.016 176.453 277.608 176.693 278.008C176.949 278.408 177.293 278.608 177.725 278.608C178.333 278.608 178.741 278.256 178.949 277.552H184.589C184.269 279.312 183.501 280.688 182.285 281.68C181.085 282.672 179.605 283.168 177.845 283.168C176.501 283.168 175.301 282.888 174.245 282.328C173.205 281.768 172.389 280.968 171.797 279.928C171.221 278.872 170.933 277.64 170.933 276.232C170.933 274.824 171.221 273.6 171.797 272.56C172.389 271.504 173.205 270.696 174.245 270.136C175.301 269.576 176.501 269.296 177.845 269.296ZM194.942 283L191.606 277.6V283H186.278V265.24H191.606V274.528L194.99 269.464H201.182L196.118 276.28L201.302 283H194.942Z" fill="#00874A"/>
<path d="M262.528 144.656H268.672V146H260.824V129.08H262.528V144.656ZM270.588 129.008C270.588 128.656 270.7 128.376 270.924 128.168C271.164 127.96 271.468 127.856 271.836 127.856C272.204 127.856 272.5 127.96 272.724 128.168C272.948 128.376 273.06 128.656 273.06 129.008C273.06 129.344 272.948 129.616 272.724 129.824C272.5 130.032 272.204 130.136 271.836 130.136C271.468 130.136 271.164 130.032 270.924 129.824C270.7 129.616 270.588 129.344 270.588 129.008ZM272.676 132.896V146H270.972V132.896H272.676ZM281.836 132.728C283.164 132.728 284.292 133.072 285.22 133.76C286.164 134.448 286.812 135.36 287.164 136.496V132.896H288.82V146.312C288.82 147.528 288.564 148.592 288.052 149.504C287.54 150.432 286.828 151.144 285.916 151.64C285.004 152.152 283.964 152.408 282.796 152.408C281.084 152.408 279.676 151.992 278.572 151.16C277.484 150.344 276.772 149.232 276.436 147.824H278.116C278.404 148.784 278.932 149.544 279.7 150.104C280.484 150.664 281.484 150.944 282.7 150.944C283.532 150.944 284.284 150.76 284.956 150.392C285.644 150.04 286.18 149.512 286.564 148.808C286.964 148.104 287.164 147.272 287.164 146.312V142.4C286.812 143.536 286.164 144.448 285.22 145.136C284.292 145.824 283.164 146.168 281.836 146.168C280.652 146.168 279.588 145.896 278.644 145.352C277.716 144.808 276.988 144.032 276.46 143.024C275.948 142 275.692 140.808 275.692 139.448C275.692 138.072 275.948 136.88 276.46 135.872C276.988 134.848 277.716 134.072 278.644 133.544C279.572 133 280.636 132.728 281.836 132.728ZM282.268 134.216C280.796 134.216 279.612 134.688 278.716 135.632C277.836 136.56 277.396 137.832 277.396 139.448C277.396 141.064 277.836 142.344 278.716 143.288C279.612 144.216 280.796 144.68 282.268 144.68C283.196 144.68 284.028 144.464 284.764 144.032C285.516 143.6 286.1 142.992 286.516 142.208C286.948 141.408 287.164 140.488 287.164 139.448C287.164 138.408 286.948 137.496 286.516 136.712C286.1 135.912 285.516 135.296 284.764 134.864C284.028 134.432 283.196 134.216 282.268 134.216ZM299.017 132.656C300.537 132.656 301.769 133.144 302.713 134.12C303.673 135.08 304.153 136.496 304.153 138.368V146H302.497V138.488C302.497 137.064 302.137 135.976 301.417 135.224C300.697 134.456 299.713 134.072 298.465 134.072C297.153 134.072 296.105 134.496 295.321 135.344C294.553 136.176 294.169 137.408 294.169 139.04V146H292.465V128.24H294.169V136.112C294.505 134.992 295.113 134.136 295.993 133.544C296.873 132.952 297.881 132.656 299.017 132.656ZM313.651 144.512V146H312.091C310.827 146 309.883 145.704 309.259 145.112C308.635 144.504 308.323 143.488 308.323 142.064V134.36H306.331V132.896H308.323V129.584H310.027V132.896H313.627V134.36H310.027V142.088C310.027 143.016 310.195 143.656 310.531 144.008C310.867 144.344 311.459 144.512 312.307 144.512H313.651Z" fill="#00874A"/>
</svg>
