<svg width="342" height="312" viewBox="0 0 342 312" fill="none" xmlns="http://www.w3.org/2000/svg">
<rect width="342" height="312" rx="12" fill="#00874A"/>
<path d="M35.48 103.328V118H27.584V78.464H41.976C46.6427 78.464 50.152 79.584 52.504 81.824C54.8933 84.064 56.088 87.1067 56.088 90.952C56.088 94.7227 54.856 97.728 52.392 99.968C49.9653 102.208 46.4933 103.328 41.976 103.328H35.48ZM41.136 97C45.7653 97 48.08 94.984 48.08 90.952C48.08 88.9733 47.5387 87.4613 46.456 86.416C45.3733 85.3707 43.6 84.848 41.136 84.848H35.48V97H41.136ZM75.5528 86.584C78.5768 86.584 81.2835 87.2187 83.6728 88.488C86.0995 89.7573 88.0035 91.6053 89.3848 94.032C90.7661 96.4213 91.4568 99.24 91.4568 102.488C91.4568 105.736 90.7661 108.555 89.3848 110.944C88.0035 113.333 86.0995 115.181 83.6728 116.488C81.2835 117.757 78.5768 118.392 75.5528 118.392C72.5288 118.392 69.8035 117.757 67.3768 116.488C64.9875 115.181 63.1021 113.333 61.7208 110.944C60.3395 108.555 59.6488 105.736 59.6488 102.488C59.6488 99.24 60.3395 96.4213 61.7208 94.032C63.1021 91.6053 64.9875 89.7573 67.3768 88.488C69.8035 87.2187 72.5288 86.584 75.5528 86.584ZM75.5528 93.416C73.3501 93.416 71.4835 94.2 69.9528 95.768C68.4221 97.2987 67.6568 99.5387 67.6568 102.488C67.6568 105.437 68.4221 107.696 69.9528 109.264C71.4835 110.795 73.3501 111.56 75.5528 111.56C77.7555 111.56 79.6221 110.795 81.1528 109.264C82.6835 107.696 83.4488 105.437 83.4488 102.488C83.4488 99.5387 82.6835 97.2987 81.1528 95.768C79.6221 94.2 77.7555 93.416 75.5528 93.416ZM115.573 86.584C118.186 86.584 120.538 87.2187 122.629 88.488C124.72 89.7573 126.344 91.6053 127.501 94.032C128.696 96.4213 129.293 99.24 129.293 102.488C129.293 105.736 128.696 108.573 127.501 111C126.344 113.389 124.72 115.219 122.629 116.488C120.538 117.757 118.186 118.392 115.573 118.392C112.96 118.392 110.72 117.776 108.853 116.544C107.024 115.275 105.717 113.595 104.933 111.504V132.784H97.0371V86.976H104.933V93.416C105.717 91.3253 107.024 89.664 108.853 88.432C110.72 87.2 112.96 86.584 115.573 86.584ZM113.109 93.472C110.72 93.472 108.741 94.2933 107.173 95.936C105.642 97.5413 104.877 99.7253 104.877 102.488C104.877 105.213 105.642 107.397 107.173 109.04C108.741 110.645 110.72 111.448 113.109 111.448C115.573 111.448 117.552 110.664 119.045 109.096C120.538 107.491 121.285 105.288 121.285 102.488C121.285 99.688 120.538 97.4853 119.045 95.88C117.552 94.2747 115.573 93.472 113.109 93.472ZM153.417 86.584C156.03 86.584 158.382 87.2187 160.473 88.488C162.564 89.7573 164.188 91.6053 165.345 94.032C166.54 96.4213 167.137 99.24 167.137 102.488C167.137 105.736 166.54 108.573 165.345 111C164.188 113.389 162.564 115.219 160.473 116.488C158.382 117.757 156.03 118.392 153.417 118.392C150.804 118.392 148.564 117.776 146.697 116.544C144.868 115.275 143.561 113.595 142.777 111.504V132.784H134.881V86.976H142.777V93.416C143.561 91.3253 144.868 89.664 146.697 88.432C148.564 87.2 150.804 86.584 153.417 86.584ZM150.953 93.472C148.564 93.472 146.585 94.2933 145.017 95.936C143.486 97.5413 142.721 99.7253 142.721 102.488C142.721 105.213 143.486 107.397 145.017 109.04C146.585 110.645 148.564 111.448 150.953 111.448C153.417 111.448 155.396 110.664 156.889 109.096C158.382 107.491 159.129 105.288 159.129 102.488C159.129 99.688 158.382 97.4853 156.889 95.88C155.396 94.2747 153.417 93.472 150.953 93.472ZM171.829 78.072C171.829 76.8027 172.277 75.776 173.173 74.992C174.069 74.1707 175.245 73.76 176.701 73.76C178.157 73.76 179.333 74.1707 180.229 74.992C181.125 75.776 181.573 76.8027 181.573 78.072C181.573 79.304 181.125 80.3307 180.229 81.152C179.333 81.936 178.157 82.328 176.701 82.328C175.245 82.328 174.069 81.936 173.173 81.152C172.277 80.3307 171.829 79.304 171.829 78.072ZM180.621 86.976V118H172.725V86.976H180.621ZM206.244 86.528C209.828 86.528 212.684 87.704 214.812 90.056C216.94 92.408 218.004 95.712 218.004 99.968V118H210.164V100.864C210.164 98.4 209.529 96.496 208.26 95.152C206.99 93.7707 205.254 93.08 203.052 93.08C200.812 93.08 199.02 93.808 197.676 95.264C196.332 96.72 195.66 98.8107 195.66 101.536V118H187.764V86.976H195.66V93.192C196.481 91.1013 197.825 89.4773 199.692 88.32C201.596 87.1253 203.78 86.528 206.244 86.528ZM235.647 86.584C239.418 86.584 242.442 87.536 244.719 89.44C246.997 91.344 248.415 93.8827 248.975 97.056H241.583C241.285 95.5627 240.613 94.368 239.567 93.472C238.522 92.576 237.159 92.128 235.479 92.128C234.135 92.128 233.09 92.4453 232.343 93.08C231.597 93.7147 231.223 94.5733 231.223 95.656C231.223 96.5147 231.522 97.2053 232.119 97.728C232.717 98.2507 233.463 98.6613 234.359 98.96C235.255 99.2587 236.543 99.6133 238.223 100.024C240.575 100.547 242.479 101.107 243.935 101.704C245.429 102.264 246.698 103.179 247.743 104.448C248.826 105.68 249.367 107.36 249.367 109.488C249.367 112.139 248.322 114.285 246.231 115.928C244.178 117.571 241.397 118.392 237.887 118.392C233.855 118.392 230.626 117.496 228.199 115.704C225.773 113.875 224.298 111.28 223.775 107.92H231.335C231.522 109.451 232.194 110.664 233.351 111.56C234.509 112.419 236.021 112.848 237.887 112.848C239.231 112.848 240.258 112.531 240.967 111.896C241.677 111.224 242.031 110.365 242.031 109.32C242.031 108.424 241.714 107.696 241.079 107.136C240.482 106.576 239.717 106.147 238.783 105.848C237.887 105.549 236.599 105.195 234.919 104.784C232.605 104.261 230.719 103.739 229.263 103.216C227.845 102.656 226.613 101.779 225.567 100.584C224.559 99.3893 224.055 97.7467 224.055 95.656C224.055 92.968 225.082 90.784 227.135 89.104C229.189 87.424 232.026 86.584 235.647 86.584Z" fill="white"/>
<path d="M31.344 170.728C32.672 170.728 33.8 171.072 34.728 171.76C35.672 172.448 36.32 173.36 36.672 174.496V170.896H38.328V184H36.672V180.4C36.32 181.536 35.672 182.448 34.728 183.136C33.8 183.824 32.672 184.168 31.344 184.168C30.16 184.168 29.096 183.896 28.152 183.352C27.224 182.808 26.496 182.032 25.968 181.024C25.456 180 25.2 178.808 25.2 177.448C25.2 176.072 25.456 174.88 25.968 173.872C26.496 172.848 27.224 172.072 28.152 171.544C29.08 171 30.144 170.728 31.344 170.728ZM31.776 172.216C30.304 172.216 29.12 172.688 28.224 173.632C27.344 174.56 26.904 175.832 26.904 177.448C26.904 179.064 27.344 180.344 28.224 181.288C29.12 182.216 30.304 182.68 31.776 182.68C32.704 182.68 33.536 182.464 34.272 182.032C35.024 181.6 35.608 180.992 36.024 180.208C36.456 179.408 36.672 178.488 36.672 177.448C36.672 176.408 36.456 175.496 36.024 174.712C35.608 173.912 35.024 173.296 34.272 172.864C33.536 172.432 32.704 172.216 31.776 172.216ZM48.9804 170.728C50.1804 170.728 51.2364 171 52.1484 171.544C53.0764 172.072 53.7964 172.848 54.3084 173.872C54.8364 174.88 55.1004 176.072 55.1004 177.448C55.1004 178.808 54.8364 180 54.3084 181.024C53.7964 182.032 53.0764 182.808 52.1484 183.352C51.2204 183.896 50.1644 184.168 48.9804 184.168C47.6364 184.168 46.5004 183.824 45.5724 183.136C44.6444 182.448 44.0044 181.536 43.6524 180.4V184H41.9724V166.24H43.6524V174.496C44.0044 173.36 44.6444 172.448 45.5724 171.76C46.5004 171.072 47.6364 170.728 48.9804 170.728ZM48.5244 172.216C47.5964 172.216 46.7564 172.432 46.0044 172.864C45.2684 173.296 44.6924 173.912 44.2764 174.712C43.8604 175.496 43.6524 176.408 43.6524 177.448C43.6524 178.488 43.8604 179.408 44.2764 180.208C44.6924 180.992 45.2684 181.6 46.0044 182.032C46.7564 182.464 47.5964 182.68 48.5244 182.68C50.0124 182.68 51.1964 182.216 52.0764 181.288C52.9564 180.344 53.3964 179.064 53.3964 177.448C53.3964 175.832 52.9564 174.56 52.0764 173.632C51.1964 172.688 50.0124 172.216 48.5244 172.216ZM63.9049 170.728C65.5689 170.728 66.9449 171.168 68.0329 172.048C69.1369 172.928 69.8089 174.096 70.0489 175.552H68.2969C68.1209 174.512 67.6329 173.696 66.8329 173.104C66.0329 172.496 65.0489 172.192 63.8809 172.192C63.0329 172.192 62.2489 172.384 61.5289 172.768C60.8249 173.152 60.2569 173.744 59.8249 174.544C59.4089 175.328 59.2009 176.296 59.2009 177.448C59.2009 178.6 59.4089 179.576 59.8249 180.376C60.2569 181.16 60.8249 181.744 61.5289 182.128C62.2489 182.512 63.0329 182.704 63.8809 182.704C65.0489 182.704 66.0329 182.408 66.8329 181.816C67.6329 181.208 68.1209 180.384 68.2969 179.344H70.0489C69.8089 180.8 69.1369 181.968 68.0329 182.848C66.9449 183.728 65.5689 184.168 63.9049 184.168C62.6569 184.168 61.5449 183.904 60.5689 183.376C59.6089 182.832 58.8569 182.056 58.3129 181.048C57.7689 180.024 57.4969 178.824 57.4969 177.448C57.4969 176.072 57.7689 174.88 58.3129 173.872C58.8569 172.848 59.6089 172.072 60.5689 171.544C61.5449 171 62.6569 170.728 63.9049 170.728ZM78.594 170.728C79.922 170.728 81.05 171.072 81.978 171.76C82.922 172.448 83.562 173.36 83.898 174.496V166.24H85.578V184H83.898V180.4C83.562 181.536 82.922 182.448 81.978 183.136C81.05 183.824 79.922 184.168 78.594 184.168C77.41 184.168 76.346 183.896 75.402 183.352C74.474 182.808 73.746 182.032 73.218 181.024C72.706 180 72.45 178.808 72.45 177.448C72.45 176.072 72.706 174.88 73.218 173.872C73.746 172.848 74.474 172.072 75.402 171.544C76.33 171 77.394 170.728 78.594 170.728ZM79.026 172.216C77.554 172.216 76.37 172.688 75.474 173.632C74.594 174.56 74.154 175.832 74.154 177.448C74.154 179.064 74.594 180.344 75.474 181.288C76.37 182.216 77.554 182.68 79.026 182.68C79.954 182.68 80.786 182.464 81.522 182.032C82.274 181.6 82.858 180.992 83.274 180.208C83.706 179.408 83.922 178.488 83.922 177.448C83.922 176.408 83.706 175.496 83.274 174.712C82.858 173.912 82.274 173.296 81.522 172.864C80.786 172.432 79.954 172.216 79.026 172.216ZM94.9344 182.776C96.1184 182.776 97.1104 182.48 97.9104 181.888C98.7104 181.296 99.1904 180.496 99.3504 179.488H101.126C100.886 180.88 100.222 182.008 99.1344 182.872C98.0464 183.736 96.6704 184.168 95.0064 184.168C93.7584 184.168 92.6464 183.904 91.6704 183.376C90.7104 182.832 89.9584 182.056 89.4144 181.048C88.8704 180.024 88.5984 178.824 88.5984 177.448C88.5984 176.072 88.8704 174.88 89.4144 173.872C89.9584 172.848 90.7104 172.072 91.6704 171.544C92.6464 171 93.7584 170.728 95.0064 170.728C96.2864 170.728 97.3904 171 98.3184 171.544C99.2624 172.072 99.9744 172.784 100.454 173.68C100.95 174.576 101.198 175.552 101.198 176.608C101.198 177.056 101.166 177.464 101.102 177.832H90.2544C90.2704 178.936 90.4944 179.864 90.9264 180.616C91.3744 181.352 91.9504 181.896 92.6544 182.248C93.3584 182.6 94.1184 182.776 94.9344 182.776ZM95.0064 172.096C94.1584 172.096 93.3824 172.272 92.6784 172.624C91.9744 172.976 91.3984 173.52 90.9504 174.256C90.5184 174.976 90.2864 175.88 90.2544 176.968H99.5184C99.5824 175.896 99.4064 174.992 98.9904 174.256C98.5744 173.52 98.0144 172.976 97.3104 172.624C96.6064 172.272 95.8384 172.096 95.0064 172.096ZM109.742 167.416C108.526 167.4 107.67 167.624 107.174 168.088C106.694 168.536 106.454 169.296 106.454 170.368V170.896H109.742V172.384H106.454V184H104.774V172.384H102.83V170.896H104.774V170.248C104.774 168.776 105.174 167.672 105.974 166.936C106.774 166.2 108.03 165.864 109.742 165.928V167.416ZM117.782 170.728C119.11 170.728 120.238 171.072 121.166 171.76C122.11 172.448 122.758 173.36 123.109 174.496V170.896H124.766V184.312C124.766 185.528 124.51 186.592 123.997 187.504C123.486 188.432 122.774 189.144 121.862 189.64C120.95 190.152 119.91 190.408 118.742 190.408C117.03 190.408 115.622 189.992 114.518 189.16C113.43 188.344 112.718 187.232 112.382 185.824H114.062C114.35 186.784 114.878 187.544 115.646 188.104C116.43 188.664 117.43 188.944 118.646 188.944C119.478 188.944 120.23 188.76 120.902 188.392C121.59 188.04 122.126 187.512 122.51 186.808C122.91 186.104 123.109 185.272 123.109 184.312V180.4C122.758 181.536 122.11 182.448 121.166 183.136C120.238 183.824 119.11 184.168 117.782 184.168C116.598 184.168 115.534 183.896 114.59 183.352C113.662 182.808 112.934 182.032 112.406 181.024C111.894 180 111.638 178.808 111.638 177.448C111.638 176.072 111.894 174.88 112.406 173.872C112.934 172.848 113.662 172.072 114.59 171.544C115.518 171 116.582 170.728 117.782 170.728ZM118.214 172.216C116.742 172.216 115.558 172.688 114.662 173.632C113.782 174.56 113.342 175.832 113.342 177.448C113.342 179.064 113.782 180.344 114.662 181.288C115.558 182.216 116.742 182.68 118.214 182.68C119.142 182.68 119.974 182.464 120.71 182.032C121.462 181.6 122.046 180.992 122.462 180.208C122.894 179.408 123.109 178.488 123.109 177.448C123.109 176.408 122.894 175.496 122.462 174.712C122.046 173.912 121.462 173.296 120.71 172.864C119.974 172.432 119.142 172.216 118.214 172.216ZM134.962 170.656C136.482 170.656 137.714 171.144 138.658 172.12C139.618 173.08 140.098 174.496 140.098 176.368V184H138.442V176.488C138.442 175.064 138.082 173.976 137.362 173.224C136.642 172.456 135.658 172.072 134.41 172.072C133.098 172.072 132.05 172.496 131.266 173.344C130.498 174.176 130.114 175.408 130.114 177.04V184H128.41V166.24H130.114V174.112C130.45 172.992 131.058 172.136 131.938 171.544C132.818 170.952 133.826 170.656 134.962 170.656ZM143.26 167.008C143.26 166.656 143.372 166.376 143.596 166.168C143.836 165.96 144.14 165.856 144.508 165.856C144.876 165.856 145.172 165.96 145.396 166.168C145.62 166.376 145.732 166.656 145.732 167.008C145.732 167.344 145.62 167.616 145.396 167.824C145.172 168.032 144.876 168.136 144.508 168.136C144.14 168.136 143.836 168.032 143.596 167.824C143.372 167.616 143.26 167.344 143.26 167.008ZM145.348 170.896V184H143.644V170.896H145.348ZM155.996 184L150.692 178V184H148.988V166.24H150.692V176.656L155.9 170.896H157.988L151.964 177.376L158.156 184H155.996ZM161.848 166.24V184H160.144V166.24H161.848ZM181.4 170.656C182.904 170.656 184.12 171.144 185.048 172.12C185.992 173.08 186.464 174.496 186.464 176.368V184H184.784V176.488C184.784 175.08 184.44 174 183.752 173.248C183.08 172.496 182.152 172.12 180.968 172.12C179.704 172.12 178.696 172.536 177.944 173.368C177.192 174.2 176.816 175.424 176.816 177.04V184H175.16V176.488C175.16 175.08 174.816 174 174.128 173.248C173.456 172.496 172.528 172.12 171.344 172.12C170.08 172.12 169.072 172.536 168.32 173.368C167.568 174.2 167.192 175.424 167.192 177.04V184H165.488V170.896H167.192V174.016C167.512 172.912 168.088 172.08 168.92 171.52C169.768 170.944 170.744 170.656 171.848 170.656C173 170.656 173.992 170.96 174.824 171.568C175.656 172.176 176.232 173.072 176.552 174.256C176.904 173.088 177.52 172.2 178.4 171.592C179.28 170.968 180.28 170.656 181.4 170.656ZM196.556 170.656C198.076 170.656 199.308 171.144 200.252 172.12C201.212 173.08 201.692 174.496 201.692 176.368V184H200.036V176.488C200.036 175.064 199.676 173.976 198.956 173.224C198.236 172.456 197.252 172.072 196.004 172.072C194.692 172.072 193.644 172.496 192.86 173.344C192.092 174.176 191.708 175.408 191.708 177.04V184H190.004V170.896H191.708V174.112C192.044 172.992 192.652 172.136 193.532 171.544C194.412 170.952 195.42 170.656 196.556 170.656ZM211.166 170.728C212.414 170.728 213.526 171 214.502 171.544C215.494 172.072 216.27 172.848 216.83 173.872C217.39 174.88 217.67 176.072 217.67 177.448C217.67 178.824 217.39 180.016 216.83 181.024C216.27 182.032 215.494 182.808 214.502 183.352C213.526 183.896 212.414 184.168 211.166 184.168C209.918 184.168 208.798 183.896 207.806 183.352C206.814 182.808 206.03 182.032 205.454 181.024C204.894 180 204.614 178.808 204.614 177.448C204.614 176.072 204.894 174.88 205.454 173.872C206.03 172.848 206.814 172.072 207.806 171.544C208.798 171 209.918 170.728 211.166 170.728ZM211.166 172.192C210.302 172.192 209.502 172.384 208.766 172.768C208.03 173.152 207.438 173.744 206.99 174.544C206.542 175.328 206.318 176.296 206.318 177.448C206.318 178.6 206.542 179.568 206.99 180.352C207.438 181.136 208.03 181.72 208.766 182.104C209.502 182.488 210.302 182.68 211.166 182.68C212.014 182.68 212.798 182.488 213.518 182.104C214.254 181.72 214.846 181.136 215.294 180.352C215.742 179.568 215.966 178.6 215.966 177.448C215.966 176.296 215.742 175.328 215.294 174.544C214.846 173.744 214.254 173.152 213.518 172.768C212.798 172.384 212.014 172.192 211.166 172.192ZM227.691 170.728C228.891 170.728 229.947 171 230.859 171.544C231.787 172.072 232.507 172.848 233.019 173.872C233.547 174.88 233.811 176.072 233.811 177.448C233.811 178.808 233.547 180 233.019 181.024C232.507 182.032 231.787 182.808 230.859 183.352C229.931 183.896 228.875 184.168 227.691 184.168C226.347 184.168 225.211 183.824 224.283 183.136C223.355 182.448 222.715 181.536 222.363 180.4V190.192H220.683V170.896H222.363V174.496C222.715 173.36 223.355 172.448 224.283 171.76C225.211 171.072 226.347 170.728 227.691 170.728ZM227.235 172.216C226.307 172.216 225.467 172.432 224.715 172.864C223.979 173.296 223.403 173.912 222.987 174.712C222.571 175.496 222.363 176.408 222.363 177.448C222.363 178.488 222.571 179.408 222.987 180.208C223.403 180.992 223.979 181.6 224.715 182.032C225.467 182.464 226.307 182.68 227.235 182.68C228.723 182.68 229.907 182.216 230.787 181.288C231.667 180.344 232.107 179.064 232.107 177.448C232.107 175.832 231.667 174.56 230.787 173.632C229.907 172.688 228.723 172.216 227.235 172.216ZM242.448 170.752C243.744 170.752 244.84 171.072 245.736 171.712C246.648 172.352 247.296 173.224 247.68 174.328V170.896H249.336V190.192H247.68V180.496C247.296 181.616 246.648 182.512 245.736 183.184C244.824 183.84 243.728 184.168 242.448 184.168C241.248 184.168 240.176 183.896 239.232 183.352C238.288 182.792 237.544 182.008 237 181C236.472 179.992 236.208 178.816 236.208 177.472C236.208 176.128 236.472 174.952 237 173.944C237.544 172.92 238.288 172.136 239.232 171.592C240.176 171.032 241.248 170.752 242.448 170.752ZM242.784 172.216C241.328 172.216 240.152 172.688 239.256 173.632C238.36 174.56 237.912 175.84 237.912 177.472C237.912 179.104 238.36 180.384 239.256 181.312C240.152 182.224 241.328 182.68 242.784 182.68C243.696 182.68 244.52 182.472 245.256 182.056C246.008 181.624 246.6 181.016 247.032 180.232C247.464 179.432 247.68 178.504 247.68 177.448C247.68 176.392 247.464 175.472 247.032 174.688C246.6 173.888 246.008 173.28 245.256 172.864C244.52 172.432 243.696 172.216 242.784 172.216ZM254.684 173.608C255.068 172.664 255.684 171.936 256.532 171.424C257.38 170.912 258.412 170.656 259.628 170.656V172.48H259.076C257.812 172.48 256.764 172.824 255.932 173.512C255.1 174.184 254.684 175.288 254.684 176.824V184H252.98V170.896H254.684V173.608ZM265.823 170.728C267.247 170.728 268.391 171.104 269.255 171.856C270.119 172.608 270.647 173.624 270.839 174.904H269.231C269.135 174.056 268.783 173.36 268.175 172.816C267.583 172.256 266.783 171.976 265.775 171.976C264.911 171.976 264.231 172.192 263.735 172.624C263.255 173.04 263.015 173.6 263.015 174.304C263.015 174.832 263.167 175.256 263.471 175.576C263.791 175.896 264.183 176.144 264.647 176.32C265.111 176.48 265.735 176.648 266.519 176.824C267.479 177.048 268.247 177.28 268.823 177.52C269.415 177.744 269.919 178.104 270.335 178.6C270.751 179.096 270.959 179.768 270.959 180.616C270.959 181.656 270.567 182.512 269.783 183.184C269.015 183.84 267.991 184.168 266.711 184.168C265.207 184.168 263.975 183.8 263.015 183.064C262.055 182.312 261.487 181.288 261.311 179.992H262.943C263.039 180.856 263.415 181.56 264.071 182.104C264.727 182.648 265.615 182.92 266.735 182.92C267.567 182.92 268.215 182.704 268.679 182.272C269.143 181.84 269.375 181.28 269.375 180.592C269.375 180.032 269.215 179.584 268.895 179.248C268.575 178.912 268.175 178.664 267.695 178.504C267.231 178.328 266.591 178.144 265.775 177.952C264.831 177.728 264.071 177.504 263.495 177.28C262.935 177.056 262.455 176.712 262.055 176.248C261.655 175.768 261.455 175.12 261.455 174.304C261.455 173.232 261.847 172.368 262.631 171.712C263.415 171.056 264.479 170.728 265.823 170.728ZM279.979 182.512V184H278.419C277.155 184 276.211 183.704 275.587 183.112C274.963 182.504 274.651 181.488 274.651 180.064V172.36H272.659V170.896H274.651V167.584H276.355V170.896H279.955V172.36H276.355V180.088C276.355 181.016 276.523 181.656 276.859 182.008C277.195 182.344 277.787 182.512 278.635 182.512H279.979ZM294.05 170.896V184H292.37V180.76C292.034 181.896 291.426 182.76 290.546 183.352C289.666 183.944 288.658 184.24 287.522 184.24C285.986 184.24 284.738 183.76 283.778 182.8C282.834 181.824 282.362 180.4 282.362 178.528V170.896H284.042V178.384C284.042 179.824 284.402 180.928 285.122 181.696C285.842 182.448 286.826 182.824 288.074 182.824C289.386 182.824 290.426 182.408 291.194 181.576C291.978 180.728 292.37 179.488 292.37 177.856V170.896H294.05ZM302.57 182.104L306.962 170.896H308.786L303.506 184H301.586L296.306 170.896H298.13L302.57 182.104ZM43.536 194.896L39.672 208H37.896L33.96 196.864L29.976 208H28.224L24.36 194.896H26.064L29.184 206.248L33.12 194.896H34.848L38.808 206.248L41.904 194.896H43.536ZM53.091 208L49.491 202.648L46.155 208H44.307L48.579 201.256L44.307 194.896H46.227L49.731 200.104L53.019 194.896H54.867L50.619 201.448L55.011 208H53.091ZM57.5434 194.896L62.1034 205.816L66.3034 194.896H68.1754L60.4714 214.192H58.5514L61.1914 207.856L55.6714 194.896H57.5434ZM70.9804 206.56H78.2524V208H69.1564V206.632L76.1164 196.312H69.3484V194.896H78.0124V196.264L70.9804 206.56Z" fill="white"/>
<path d="M26.736 243.84C25.888 242.32 25.464 240.192 25.464 237.456C25.464 234.736 25.888 232.624 26.736 231.12C27.6 229.616 29.12 228.864 31.296 228.864C33.456 228.864 34.968 229.616 35.832 231.12C36.696 232.624 37.128 234.736 37.128 237.456C37.128 240.192 36.696 242.32 35.832 243.84C34.968 245.344 33.456 246.096 31.296 246.096C29.12 246.096 27.6 245.344 26.736 243.84ZM35.112 241.224C35.336 240.2 35.448 238.944 35.448 237.456C35.448 235.984 35.336 234.744 35.112 233.736C34.904 232.728 34.496 231.928 33.888 231.336C33.28 230.744 32.416 230.448 31.296 230.448C30.16 230.448 29.288 230.744 28.68 231.336C28.072 231.928 27.656 232.728 27.432 233.736C27.224 234.744 27.12 235.984 27.12 237.456C27.12 238.944 27.224 240.2 27.432 241.224C27.656 242.232 28.072 243.032 28.68 243.624C29.288 244.216 30.16 244.512 31.296 244.512C32.416 244.512 33.28 244.216 33.888 243.624C34.496 243.032 34.904 242.232 35.112 241.224ZM38.9141 230.64V229.08H43.2101V246H41.4581V230.64H38.9141ZM46.1034 244.728C48.9354 242.856 51.1914 240.976 52.8714 239.088C54.5674 237.2 55.4154 235.432 55.4154 233.784C55.4154 232.744 55.1434 231.904 54.5994 231.264C54.0554 230.608 53.1754 230.28 51.9594 230.28C50.7114 230.28 49.7594 230.672 49.1034 231.456C48.4634 232.224 48.1034 233.272 48.0234 234.6H46.3674C46.4794 232.76 47.0474 231.344 48.0714 230.352C49.0954 229.344 50.4314 228.84 52.0794 228.84C53.5834 228.84 54.7994 229.248 55.7274 230.064C56.6554 230.88 57.1194 232.072 57.1194 233.64C57.1194 234.968 56.6794 236.328 55.7994 237.72C54.9194 239.096 53.8234 240.376 52.5114 241.56C51.1994 242.728 49.8634 243.72 48.5034 244.536H57.5994V245.928H46.1034V244.728ZM65.8166 228.72C66.8886 228.72 67.8006 228.912 68.5526 229.296C69.3046 229.664 69.8726 230.176 70.2566 230.832C70.6566 231.488 70.8566 232.232 70.8566 233.064C70.8566 234.12 70.5446 235.016 69.9206 235.752C69.2966 236.488 68.3446 236.92 67.0646 237.048V237.192C68.3446 237.512 69.3446 238.016 70.0646 238.704C70.8006 239.376 71.1686 240.312 71.1686 241.512C71.1686 242.888 70.7126 244.008 69.8006 244.872C68.9046 245.736 67.5926 246.168 65.8646 246.168C64.1526 246.168 62.7686 245.728 61.7126 244.848C60.6566 243.952 60.0246 242.656 59.8166 240.96H61.4726C61.6486 242.096 62.1046 243.008 62.8406 243.696C63.5926 244.368 64.5846 244.704 65.8166 244.704C67.0166 244.704 67.9286 244.4 68.5526 243.792C69.1926 243.184 69.5126 242.392 69.5126 241.416C69.5126 240.264 69.0566 239.392 68.1446 238.8C67.2486 238.192 65.9766 237.888 64.3286 237.888H63.8006V236.472H64.3286C67.5766 236.472 69.2006 235.392 69.2006 233.232C69.2006 232.288 68.8966 231.536 68.2886 230.976C67.6806 230.416 66.8406 230.136 65.7686 230.136C64.7126 230.136 63.8166 230.432 63.0806 231.024C62.3446 231.616 61.9046 232.504 61.7606 233.688H60.1046C60.2326 232.12 60.7926 230.904 61.7846 230.04C62.7766 229.16 64.1206 228.72 65.8166 228.72ZM73.3517 241.92V240.528L82.2797 229.008H84.0797V240.432H86.7197V241.92H84.0797V246H82.3757V241.92H73.3517ZM82.4957 231.096L75.1517 240.432H82.4957V231.096ZM99.8098 230.424H90.8338V236.688C91.2658 236.112 91.8818 235.648 92.6818 235.296C93.4818 234.944 94.3458 234.768 95.2738 234.768C97.0818 234.768 98.4258 235.288 99.3058 236.328C100.202 237.368 100.65 238.672 100.65 240.24C100.65 241.952 100.17 243.36 99.2098 244.464C98.2498 245.568 96.8258 246.12 94.9378 246.12C93.2898 246.12 91.9378 245.672 90.8818 244.776C89.8418 243.88 89.2418 242.664 89.0818 241.128H90.7378C90.9458 242.248 91.4098 243.112 92.1298 243.72C92.8498 244.328 93.7538 244.632 94.8418 244.632C96.2178 244.632 97.2498 244.232 97.9378 243.432C98.6418 242.616 98.9938 241.544 98.9938 240.216C98.9938 238.936 98.6418 237.936 97.9378 237.216C97.2338 236.496 96.2258 236.136 94.9138 236.136C94.0018 236.136 93.1938 236.328 92.4898 236.712C91.8018 237.096 91.2738 237.624 90.9058 238.296H89.2738V228.936H99.8098V230.424ZM113.163 233.544C113.019 232.456 112.643 231.616 112.035 231.024C111.427 230.416 110.587 230.112 109.515 230.112C108.043 230.112 106.915 230.672 106.131 231.792C105.363 232.912 104.979 234.696 104.979 237.144C104.979 237.608 104.987 237.96 105.003 238.2C105.227 237.144 105.795 236.312 106.707 235.704C107.619 235.08 108.699 234.768 109.947 234.768C111.659 234.768 112.995 235.28 113.955 236.304C114.915 237.312 115.395 238.72 115.395 240.528C115.395 241.568 115.195 242.512 114.795 243.36C114.395 244.208 113.771 244.888 112.923 245.4C112.075 245.912 111.019 246.168 109.755 246.168C107.339 246.168 105.683 245.416 104.787 243.912C103.907 242.392 103.467 240.336 103.467 237.744C103.467 234.784 103.947 232.544 104.907 231.024C105.867 229.488 107.435 228.72 109.611 228.72C111.163 228.72 112.371 229.168 113.235 230.064C114.099 230.944 114.611 232.104 114.771 233.544H113.163ZM105.195 240.144C105.195 240.944 105.355 241.696 105.675 242.4C105.995 243.088 106.491 243.648 107.163 244.08C107.835 244.496 108.683 244.704 109.707 244.704C110.939 244.704 111.923 244.336 112.659 243.6C113.411 242.848 113.787 241.816 113.787 240.504C113.787 239.08 113.411 237.992 112.659 237.24C111.923 236.488 110.907 236.112 109.611 236.112C108.875 236.112 108.171 236.264 107.499 236.568C106.827 236.872 106.275 237.328 105.843 237.936C105.411 238.528 105.195 239.264 105.195 240.144ZM128.07 230.328L121.566 246H119.79L126.366 230.496H117.054V229.032H128.07V230.328ZM130.587 233.112C130.587 232.264 130.811 231.504 131.259 230.832C131.707 230.16 132.363 229.632 133.227 229.248C134.091 228.864 135.115 228.672 136.299 228.672C137.499 228.672 138.523 228.864 139.371 229.248C140.235 229.632 140.891 230.16 141.339 230.832C141.787 231.504 142.011 232.264 142.011 233.112C142.011 234.072 141.739 234.904 141.195 235.608C140.667 236.296 139.851 236.784 138.747 237.072C139.915 237.344 140.827 237.864 141.483 238.632C142.139 239.384 142.467 240.328 142.467 241.464C142.467 243.032 141.907 244.272 140.787 245.184C139.683 246.08 138.187 246.528 136.299 246.528C134.427 246.528 132.931 246.08 131.811 245.184C130.691 244.272 130.131 243.032 130.131 241.464C130.131 240.328 130.459 239.384 131.115 238.632C131.771 237.864 132.683 237.344 133.851 237.072C132.747 236.784 131.923 236.296 131.379 235.608C130.851 234.904 130.587 234.072 130.587 233.112ZM132.267 233.328C132.267 234.368 132.627 235.176 133.347 235.752C134.067 236.312 135.051 236.592 136.299 236.592C137.547 236.592 138.531 236.312 139.251 235.752C139.971 235.176 140.331 234.368 140.331 233.328C140.331 232.288 139.963 231.488 139.227 230.928C138.507 230.352 137.531 230.064 136.299 230.064C135.083 230.064 134.107 230.352 133.371 230.928C132.635 231.488 132.267 232.288 132.267 233.328ZM131.787 241.392C131.787 242.56 132.195 243.472 133.011 244.128C133.827 244.784 134.923 245.112 136.299 245.112C137.675 245.112 138.771 244.784 139.587 244.128C140.403 243.472 140.811 242.56 140.811 241.392C140.811 240.192 140.387 239.296 139.539 238.704C138.691 238.096 137.611 237.792 136.299 237.792C134.987 237.792 133.907 238.096 133.059 238.704C132.211 239.296 131.787 240.192 131.787 241.392ZM147.222 241.344C147.382 242.448 147.766 243.304 148.374 243.912C148.982 244.504 149.822 244.8 150.894 244.8C152.398 244.8 153.526 244.24 154.278 243.12C155.046 241.984 155.43 240.176 155.43 237.696C155.43 237.264 155.422 236.936 155.406 236.712C155.182 237.752 154.606 238.584 153.678 239.208C152.766 239.832 151.686 240.144 150.438 240.144C148.742 240.144 147.414 239.632 146.454 238.608C145.494 237.584 145.014 236.168 145.014 234.36C145.014 233.32 145.214 232.376 145.614 231.528C146.014 230.68 146.63 230.008 147.462 229.512C148.31 229 149.366 228.744 150.63 228.744C153.046 228.744 154.702 229.488 155.598 230.976C156.494 232.464 156.942 234.504 156.942 237.096C156.942 240.04 156.47 242.296 155.526 243.864C154.598 245.416 153.054 246.192 150.894 246.192C149.326 246.192 148.094 245.752 147.198 244.872C146.302 243.976 145.782 242.8 145.638 241.344H147.222ZM155.19 234.768C155.19 233.504 154.814 232.432 154.062 231.552C153.31 230.656 152.182 230.208 150.678 230.208C149.446 230.208 148.454 230.576 147.702 231.312C146.966 232.048 146.598 233.072 146.598 234.384C146.598 235.808 146.966 236.904 147.702 237.672C148.454 238.424 149.478 238.8 150.774 238.8C151.51 238.8 152.214 238.656 152.886 238.368C153.574 238.064 154.126 237.608 154.542 237C154.974 236.392 155.19 235.648 155.19 234.768Z" fill="white"/>
</svg>
